<svg id="kity_svg_6" xmlns="http://www.w3.org/2000/svg" xmlns:xlink="http://www.w3.org/1999/xlink" version="1.1" width="1025" height="1026" style="background: rgb(251, 251, 251); visibility: visible;" viewBox="0 0 1025 1026"><defs id="kity_defs_7"><linearGradient id="kity_linearGradient_17" x1="0" y1="0" x2="0" y2="1"><stop id="kity_stop_18" offset="0" stop-color="rgb(255, 255, 255)"></stop><stop id="kity_stop_19" offset="1" stop-color="rgb(204, 204, 204)"></stop></linearGradient><marker id="kity_marker_2" orient="auto" refX="6" refY="0" viewBox="-7 -7 14 14" markerWidth="7" markerHeight="7" markerUnits="userSpaceOnUse"><path id="kity_path_3" fill="rgb(115, 161, 191)" stroke="none" d="M6,0A6,6,0,1,1,-6,0A6,6,0,1,1,6,0"></path></marker></defs><g id="kity_g_8"><g id="minder1" text-rendering="optimize-speed"><g id="minder_connect_group1"><path id="kity_path_31" fill="none" stroke="rgb(115, 161, 191)" stroke-width="1" d="M524,565.5A62.5,342,0,0,1,586.5,223.5"></path><path id="kity_path_33" fill="none" stroke="rgb(115, 161, 191)" stroke-width="1" d="M698.5,223.5C701.5,223.5,701.5,157.5,704.5,157.5L788.5,157.5"></path><path id="kity_path_35" fill="none" stroke="rgb(115, 161, 191)" stroke-width="1" d="M698.5,223.5C701.5,223.5,701.5,183.5,704.5,183.5L779.5,183.5"></path><path id="kity_path_37" fill="none" stroke="rgb(115, 161, 191)" stroke-width="1" d="M698.5,223.5C701.5,223.5,701.5,209.5,704.5,209.5L769.5,209.5"></path><path id="kity_path_39" fill="none" stroke="rgb(115, 161, 191)" stroke-width="1" d="M698.5,223.5C701.5,223.5,701.5,235.5,704.5,235.5L814.5,235.5"></path><path id="kity_path_41" fill="none" stroke="rgb(115, 161, 191)" stroke-width="1" d="M698.5,223.5C701.5,223.5,701.5,261.5,704.5,261.5L798.5,261.5"></path><path id="kity_path_43" fill="none" stroke="rgb(115, 161, 191)" stroke-width="1" d="M698.5,223.5C701.5,223.5,701.5,287.5,704.5,287.5L768.5,287.5"></path><path id="kity_path_45" fill="none" stroke="rgb(115, 161, 191)" stroke-width="1" d="M698.5,223.5C701.5,223.5,701.5,313.5,704.5,313.5L786.5,313.5"></path><path id="kity_path_47" fill="none" stroke="rgb(115, 161, 191)" stroke-width="1" d="M524,565.5A65.5,242,0,0,1,589.5,323.5"></path><path id="kity_path_49" fill="none" stroke="rgb(115, 161, 191)" stroke-width="1" d="M524,565.5A65.5,178,0,0,1,589.5,387.5"></path><path id="kity_path_51" fill="none" stroke="rgb(115, 161, 191)" stroke-width="1" d="M524,565.5A78.5,105,0,0,1,602.5,460.5"></path><path id="kity_path_53" fill="none" stroke="rgb(115, 161, 191)" stroke-width="1" d="M737.5,460.5C740.5,460.5,740.5,472.5,743.5,472.5L803.5,472.5"></path><path id="kity_path_55" fill="none" stroke="rgb(115, 161, 191)" stroke-width="1" d="M803.5,472.5C806.5,472.5,806.5,381.5,809.5,381.5L856.5,381.5"></path><path id="kity_path_57" fill="none" stroke="rgb(115, 161, 191)" stroke-width="1" d="M803.5,472.5C806.5,472.5,806.5,407.5,809.5,407.5L875.5,407.5"></path><path id="kity_path_59" fill="none" stroke="rgb(115, 161, 191)" stroke-width="1" d="M803.5,472.5C806.5,472.5,806.5,433.5,809.5,433.5L868.5,433.5"></path><path id="kity_path_61" fill="none" stroke="rgb(115, 161, 191)" stroke-width="1" d="M803.5,472.5C806.5,472.5,806.5,459.5,809.5,459.5L879.5,459.5"></path><path id="kity_path_63" fill="none" stroke="rgb(115, 161, 191)" stroke-width="1" d="M803.5,472.5C806.5,472.5,806.5,485.5,809.5,485.5L888.5,485.5"></path><path id="kity_path_65" fill="none" stroke="rgb(115, 161, 191)" stroke-width="1" d="M803.5,472.5C806.5,472.5,806.5,511.5,809.5,511.5L894.5,511.5"></path><path id="kity_path_67" fill="none" stroke="rgb(115, 161, 191)" stroke-width="1" d="M803.5,472.5C806.5,472.5,806.5,537.5,809.5,537.5L912.5,537.5"></path><path id="kity_path_69" fill="none" stroke="rgb(115, 161, 191)" stroke-width="1" d="M803.5,472.5C806.5,472.5,806.5,563.5,809.5,563.5L907.5,563.5"></path><path id="kity_path_71" fill="none" stroke="rgb(115, 161, 191)" stroke-width="1" d="M524,565.5A90.5,232,0,0,0,614.5,797.5"></path><path id="kity_path_79" fill="none" stroke="rgb(115, 161, 191)" stroke-width="1" d="M524,565.5A86.5,303,0,0,0,610.5,868.5"></path><path id="kity_path_81" fill="none" stroke="rgb(115, 161, 191)" stroke-width="1" d="M736.5,868.5C739.5,868.5,739.5,867.5,742.5,867.5L803.5,867.5"></path><path id="kity_path_83" fill="none" stroke="rgb(115, 161, 191)" stroke-width="1" d="M736.5,868.5C739.5,868.5,739.5,893.5,742.5,893.5L808.5,893.5"></path><path id="kity_path_85" fill="none" stroke="rgb(115, 161, 191)" stroke-width="1" d="M524,565.5A94.5,363,0,0,0,618.5,928.5"></path><path id="kity_path_87" fill="none" stroke="rgb(115, 161, 191)" stroke-width="1" d="M743.5,928.5C746.5,928.5,746.5,940.5,749.5,940.5L807.5,940.5"></path><path id="kity_path_89" fill="none" stroke="rgb(115, 161, 191)" stroke-width="1" d="M524,565.5A100.5,428,0,0,0,624.5,993.5"></path><path id="kity_path_91" fill="none" stroke="rgb(115, 161, 191)" stroke-width="1" d="M524,565.5A118.5,510,0,0,1,642.5,55.5"></path><path id="kity_path_93" fill="none" stroke="rgb(115, 161, 191)" stroke-width="1" d="M757.5,55.5C760.5,55.5,760.5,41.5,763.5,41.5L821.5,41.5"></path><path id="kity_path_95" fill="none" stroke="rgb(115, 161, 191)" stroke-width="1" d="M757.5,55.5C760.5,55.5,760.5,67.5,763.5,67.5L805.5,67.5"></path><path id="kity_path_97" fill="none" stroke="rgb(115, 161, 191)" stroke-width="1" d="M757.5,55.5C760.5,55.5,760.5,93.5,763.5,93.5L858.5,93.5"></path><path id="kity_path_99" fill="none" stroke="rgb(115, 161, 191)" stroke-width="1" d="M524,565.5A80.5,8,0,0,1,604.5,557.5"></path><path id="kity_path_101" fill="none" stroke="rgb(115, 161, 191)" stroke-width="1" d="M524,565.5A99.5,76,0,0,0,424.5,489.5"></path><path id="kity_path_103" fill="none" stroke="rgb(115, 161, 191)" stroke-width="1" d="M324.5,489.5C321.5,489.5,321.5,475.5,318.5,475.5L231.5,475.5"></path><path id="kity_path_105" fill="none" stroke="rgb(115, 161, 191)" stroke-width="1" d="M324.5,489.5C321.5,489.5,321.5,501.5,318.5,501.5L200.5,501.5"></path><path id="kity_path_107" fill="none" stroke="rgb(115, 161, 191)" stroke-width="1" d="M524,565.5A101.5,124,0,0,0,625.5,689.5"></path><path id="kity_path_129" fill="none" stroke="rgb(115, 161, 191)" stroke-width="1" d="M524,565.5A101.5,87,0,0,1,422.5,652.5"></path><path id="kity_path_131" fill="none" stroke="rgb(115, 161, 191)" stroke-width="1" d="M343.5,652.5C340.5,652.5,340.5,638.5,337.5,638.5L237.5,638.5"></path><path id="kity_path_133" fill="none" stroke="rgb(115, 161, 191)" stroke-width="1" d="M237.5,638.5C234.5,638.5,234.5,612.5,231.5,612.5L158.5,612.5"></path><path id="kity_path_135" fill="none" stroke="rgb(115, 161, 191)" stroke-width="1" d="M237.5,638.5C234.5,638.5,234.5,638.5,231.5,638.5L138.5,638.5"></path><path id="kity_path_137" fill="none" stroke="rgb(115, 161, 191)" stroke-width="1" d="M237.5,638.5C234.5,638.5,234.5,664.5,231.5,664.5L133.5,664.5"></path><path id="kity_path_139" fill="none" stroke="rgb(115, 161, 191)" stroke-width="1" d="M343.5,652.5C340.5,652.5,340.5,690.5,337.5,690.5L273.5,690.5"></path><path id="kity_path_141" fill="none" stroke="rgb(115, 161, 191)" stroke-width="1" d="M273.5,690.5C270.5,690.5,270.5,690.5,267.5,690.5L235.5,690.5"></path><path id="kity_path_143" fill="none" stroke="rgb(115, 161, 191)" stroke-width="1" d="M524,565.5A97.5,159,0,0,0,426.5,406.5"></path><path id="kity_path_145" fill="none" stroke="rgb(115, 161, 191)" stroke-width="1" d="M354.5,406.5C351.5,406.5,351.5,418.5,348.5,418.5L257.5,418.5"></path><path id="kity_path_147" fill="none" stroke="rgb(115, 161, 191)" stroke-width="1" d="M257.5,418.5C254.5,418.5,254.5,399.5,251.5,399.5L158.5,399.5"></path><path id="kity_path_149" fill="none" stroke="rgb(115, 161, 191)" stroke-width="1" d="M158.5,399.5C154,399.5,154,387.5,149.5,387.5L22.5,387.5"></path><path id="kity_path_151" fill="none" stroke="rgb(115, 161, 191)" stroke-width="1" d="M158.5,399.5C155.5,399.5,155.5,412.5,152.5,412.5L20.5,412.5"></path><path id="kity_path_153" fill="none" stroke="rgb(115, 161, 191)" stroke-width="1" d="M257.5,418.5C254.5,418.5,254.5,438.5,251.5,438.5L180.5,438.5"></path><path id="kity_path_155" fill="none" stroke="rgb(115, 161, 191)" stroke-width="1" d="M524,565.5A87.5,210,0,0,1,436.5,775.5"></path><path id="kity_path_157" fill="none" stroke="rgb(115, 161, 191)" stroke-width="1" d="M343.5,775.5C340.5,775.5,340.5,774.5,337.5,774.5L289.5,774.5"></path><path id="kity_path_159" fill="none" stroke="rgb(115, 161, 191)" stroke-width="1" d="M343.5,775.5C340.5,775.5,340.5,800.5,337.5,800.5L246.5,800.5"></path><path id="kity_path_551" fill="none" stroke="rgb(115, 161, 191)" stroke-width="1" d="M324.5,489.5C321.5,489.5,321.5,527.5,318.5,527.5L211.5,527.5"></path><path id="kity_path_560" fill="none" stroke="rgb(115, 161, 191)" stroke-width="1" d="M717.5,797.5C720.5,797.5,720.5,783.5,723.5,783.5L793.5,783.5"></path><path id="kity_path_561" fill="none" stroke="rgb(115, 161, 191)" stroke-width="1" d="M717.5,797.5C720.5,797.5,720.5,809.5,723.5,809.5L800.5,809.5"></path><path id="kity_path_562" fill="none" stroke="rgb(115, 161, 191)" stroke-width="1" d="M717.5,797.5C720.5,797.5,720.5,835.5,723.5,835.5L794.5,835.5"></path><path id="kity_path_573" fill="none" stroke="rgb(115, 161, 191)" stroke-width="1" d="M893.5,656.5C896.5,656.5,896.5,591.5,899.5,591.5L993.5,591.5"></path><path id="kity_path_574" fill="none" stroke="rgb(115, 161, 191)" stroke-width="1" d="M893.5,656.5C896.5,656.5,896.5,617.5,899.5,617.5L949.5,617.5"></path><path id="kity_path_575" fill="none" stroke="rgb(115, 161, 191)" stroke-width="1" d="M893.5,656.5C896.5,656.5,896.5,643.5,899.5,643.5L1005.5,643.5"></path><path id="kity_path_576" fill="none" stroke="rgb(115, 161, 191)" stroke-width="1" d="M893.5,656.5C896.5,656.5,896.5,669.5,899.5,669.5L971.5,669.5"></path><path id="kity_path_577" fill="none" stroke="rgb(115, 161, 191)" stroke-width="1" d="M893.5,656.5C896.5,656.5,896.5,695.5,899.5,695.5L954.5,695.5"></path><path id="kity_path_578" fill="none" stroke="rgb(115, 161, 191)" stroke-width="1" d="M893.5,656.5C896.5,656.5,896.5,721.5,899.5,721.5L957.5,721.5"></path><path id="kity_path_579" fill="none" stroke="rgb(115, 161, 191)" stroke-width="1" d="M790.5,656.5C793.5,656.5,793.5,656.5,796.5,656.5L893.5,656.5"></path><path id="kity_path_580" fill="none" stroke="rgb(115, 161, 191)" stroke-width="1" d="M694.5,689.5C697.5,689.5,697.5,656.5,700.5,656.5L790.5,656.5"></path><path id="kity_path_581" fill="none" stroke="rgb(115, 161, 191)" stroke-width="1" d="M803.5,747.5C806.5,747.5,806.5,747.5,809.5,747.5L883.5,747.5"></path><path id="kity_path_582" fill="none" stroke="rgb(115, 161, 191)" stroke-width="1" d="M694.5,689.5C697.5,689.5,697.5,747.5,700.5,747.5L803.5,747.5"></path></g><g id="minder_node1"><path id="node_outline1" fill="rgb(115, 161, 191)" stroke="rgb(115, 161, 191)" d="M479.5,551.5h89a5,5,0,0,1,5,5v18a5,5,0,0,1,-5,5h-89a5,5,0,0,1,-5,-5v-18a5,5,0,0,1,5,-5z" stroke-width="3"></path><g id="node_text1" fill="white"><text id="kity_text_22" text-rendering="inherit" font-size="16" dy=".8em" y="557.5" x="486.5">Hey, Algo</text></g></g><g id="kity_g_12" display="none"><path id="kity_path_13" fill="none" stroke="none" d="M486.5,565.5h0v0h0z"></path></g><g id="kity_g_14" display="none"><path id="kity_path_15" fill="none" stroke="none" d="M486.5,565.5h0v0h0z"></path><path id="kity_path_16" fill="none" stroke="none"></path></g><g id="minder_node2"><g id="node_expander8" style="cursor: pointer;"><path id="kity_path_377" fill="white" stroke="gray" d="M587.5,223.5A6,6,0,1,1,575.5,223.5A6,6,0,1,1,587.5,223.5"></path><path id="kity_path_378" fill="none" stroke="gray" d="M577,223.5L586,223.5"></path></g><path id="node_outline9" fill="rgb(238, 243, 246)" stroke="rgb(115, 161, 191)" d="M591.5,210.5h104a3,3,0,0,1,3,3v20a3,3,0,0,1,-3,3h-104a3,3,0,0,1,-3,-3v-20a3,3,0,0,1,3,-3z" stroke-width="1"></path><g id="node_text9" fill="black"><text id="kity_text_175" text-rendering="inherit" font-size="14" dy=".8em" y="216.5" x="608.5">JarvisCore</text></g></g><g id="minder_node3"><g id="node_expander1" style="cursor: pointer;" display="none"><path id="kity_path_356" fill="white" stroke="gray" d="M714.5,145.5A6,6,0,1,1,702.5,145.5A6,6,0,1,1,714.5,145.5"></path><path id="kity_path_357" fill="none" stroke="gray"></path></g><path id="node_outline2" fill="none" stroke="none" d="M719.5,136.5h64a5,5,0,0,1,5,5v8a5,5,0,0,1,-5,5h-64a5,5,0,0,1,-5,-5v-8a5,5,0,0,1,5,-5z"></path><g id="node_text2" fill="black"><text id="kity_text_161" text-rendering="inherit" font-size="12" dy=".8em" y="139.5" x="719.5">JarvisNode</text></g></g><g id="minder_node4"><g id="node_expander2" style="cursor: pointer;" display="none"><path id="kity_path_359" fill="white" stroke="gray" d="M714.5,171.5A6,6,0,1,1,702.5,171.5A6,6,0,1,1,714.5,171.5"></path><path id="kity_path_360" fill="none" stroke="gray"></path></g><path id="node_outline3" fill="none" stroke="none" d="M719.5,162.5h55a5,5,0,0,1,5,5v8a5,5,0,0,1,-5,5h-55a5,5,0,0,1,-5,-5v-8a5,5,0,0,1,5,-5z"></path><g id="node_text3" fill="black"><text id="kity_text_163" text-rendering="inherit" font-size="12" dy=".8em" y="165.5" x="719.5">JarvisTask</text></g></g><g id="minder_node5"><g id="node_expander3" style="cursor: pointer;" display="none"><path id="kity_path_362" fill="white" stroke="gray" d="M714.5,197.5A6,6,0,1,1,702.5,197.5A6,6,0,1,1,714.5,197.5"></path><path id="kity_path_363" fill="none" stroke="gray"></path></g><path id="node_outline4" fill="none" stroke="none" d="M719.5,188.5h45a5,5,0,0,1,5,5v8a5,5,0,0,1,-5,5h-45a5,5,0,0,1,-5,-5v-8a5,5,0,0,1,5,-5z"></path><g id="node_text4" fill="black"><text id="kity_text_165" text-rendering="inherit" font-size="12" dy=".8em" y="191.5" x="719.5">CoreDB</text></g></g><g id="minder_node6"><g id="node_expander4" style="cursor: pointer;" display="none"><path id="kity_path_365" fill="white" stroke="gray" d="M714.5,223.5A6,6,0,1,1,702.5,223.5A6,6,0,1,1,714.5,223.5"></path><path id="kity_path_366" fill="none" stroke="gray"></path></g><path id="node_outline5" fill="none" stroke="none" d="M719.5,214.5h90a5,5,0,0,1,5,5v8a5,5,0,0,1,-5,5h-90a5,5,0,0,1,-5,-5v-8a5,5,0,0,1,5,-5z"></path><g id="node_text5" fill="black"><text id="kity_text_167" text-rendering="inherit" font-size="12" dy=".8em" y="217.5" x="719.5">JarvisFileSystem</text></g></g><g id="minder_node7"><g id="node_expander5" style="cursor: pointer;" display="none"><path id="kity_path_368" fill="white" stroke="gray" d="M714.5,249.5A6,6,0,1,1,702.5,249.5A6,6,0,1,1,714.5,249.5"></path><path id="kity_path_369" fill="none" stroke="gray"></path></g><path id="node_outline6" fill="none" stroke="none" d="M719.5,240.5h74a5,5,0,0,1,5,5v8a5,5,0,0,1,-5,5h-74a5,5,0,0,1,-5,-5v-8a5,5,0,0,1,5,-5z"></path><g id="node_text6" fill="black"><text id="kity_text_169" text-rendering="inherit" font-size="12" dy=".8em" y="243.5" x="719.5">JarvisControl</text></g></g><g id="minder_node8"><g id="node_expander6" style="cursor: pointer;" display="none"><path id="kity_path_371" fill="white" stroke="gray" d="M714.5,275.5A6,6,0,1,1,702.5,275.5A6,6,0,1,1,714.5,275.5"></path><path id="kity_path_372" fill="none" stroke="gray"></path></g><path id="node_outline7" fill="none" stroke="none" d="M719.5,266.5h44a5,5,0,0,1,5,5v8a5,5,0,0,1,-5,5h-44a5,5,0,0,1,-5,-5v-8a5,5,0,0,1,5,-5z"></path><g id="node_text7" fill="black"><text id="kity_text_171" text-rendering="inherit" font-size="12" dy=".8em" y="269.5" x="719.5">LogMgr</text></g></g><g id="minder_node9"><g id="node_expander7" style="cursor: pointer;" display="none"><path id="kity_path_374" fill="white" stroke="gray" d="M714.5,301.5A6,6,0,1,1,702.5,301.5A6,6,0,1,1,714.5,301.5"></path><path id="kity_path_375" fill="none" stroke="gray"></path></g><path id="node_outline8" fill="none" stroke="none" d="M719.5,292.5h62a5,5,0,0,1,5,5v8a5,5,0,0,1,-5,5h-62a5,5,0,0,1,-5,-5v-8a5,5,0,0,1,5,-5z"></path><g id="node_text8" fill="black"><text id="kity_text_173" text-rendering="inherit" font-size="12" dy=".8em" y="295.5" x="719.5">ConfigMgr</text></g></g><g id="minder_node10"><g id="node_expander9" style="cursor: pointer;" display="none"><path id="kity_path_380" fill="white" stroke="gray" d="M590.5,323.5A6,6,0,1,1,578.5,323.5A6,6,0,1,1,590.5,323.5"></path><path id="kity_path_381" fill="none" stroke="gray"></path></g><path id="node_outline10" fill="rgb(238, 243, 246)" stroke="rgb(115, 161, 191)" d="M594.5,310.5h87a3,3,0,0,1,3,3v20a3,3,0,0,1,-3,3h-87a3,3,0,0,1,-3,-3v-20a3,3,0,0,1,3,-3z" stroke-width="1"></path><g id="node_text10" fill="black"><text id="kity_text_177" text-rendering="inherit" font-size="14" dy=".8em" y="316.5" x="611.5">JarvisSH</text></g></g><g id="minder_node11"><g id="node_expander10" style="cursor: pointer;" display="none"><path id="kity_path_383" fill="white" stroke="gray" d="M590.5,387.5A6,6,0,1,1,578.5,387.5A6,6,0,1,1,590.5,387.5"></path><path id="kity_path_384" fill="none" stroke="gray"></path></g><path id="node_outline11" fill="rgb(238, 243, 246)" stroke="rgb(115, 161, 191)" d="M594.5,374.5h119a3,3,0,0,1,3,3v20a3,3,0,0,1,-3,3h-119a3,3,0,0,1,-3,-3v-20a3,3,0,0,1,3,-3z" stroke-width="1"></path><g id="node_text11" fill="black"><text id="kity_text_179" text-rendering="inherit" font-size="14" dy=".8em" y="380.5" x="611.5">JarvisTeleBot</text></g></g><g id="minder_node12"><g id="node_expander20" style="cursor: pointer;"><path id="kity_path_413" fill="white" stroke="gray" d="M603.5,460.5A6,6,0,1,1,591.5,460.5A6,6,0,1,1,603.5,460.5"></path><path id="kity_path_414" fill="none" stroke="gray" d="M593,460.5L602,460.5"></path></g><path id="node_outline21" fill="rgb(238, 243, 246)" stroke="rgb(115, 161, 191)" d="M607.5,447.5h127a3,3,0,0,1,3,3v20a3,3,0,0,1,-3,3h-127a3,3,0,0,1,-3,-3v-20a3,3,0,0,1,3,-3z" stroke-width="1"></path><g id="node_text21" fill="black"><text id="kity_text_199" text-rendering="inherit" font-size="14" dy=".8em" y="453.5" x="624.5">JarvisChatBot</text></g></g><g id="minder_node13"><g id="node_expander19" style="cursor: pointer;"><path id="kity_path_410" fill="white" stroke="gray" d="M753.5,460.5A6,6,0,1,1,741.5,460.5A6,6,0,1,1,753.5,460.5"></path><path id="kity_path_411" fill="none" stroke="gray" d="M743,460.5L752,460.5"></path></g><path id="node_outline20" fill="none" stroke="none" d="M758.5,451.5h40a5,5,0,0,1,5,5v8a5,5,0,0,1,-5,5h-40a5,5,0,0,1,-5,-5v-8a5,5,0,0,1,5,-5z"></path><g id="node_text20" fill="black"><text id="kity_text_197" text-rendering="inherit" font-size="12" dy=".8em" y="454.5" x="758.5">plugins</text></g></g><g id="minder_node14"><g id="node_expander11" style="cursor: pointer;" display="none"><path id="kity_path_386" fill="white" stroke="gray" d="M819.5,369.5A6,6,0,1,1,807.5,369.5A6,6,0,1,1,819.5,369.5"></path><path id="kity_path_387" fill="none" stroke="gray"></path></g><path id="node_outline12" fill="none" stroke="none" d="M824.5,360.5h27a5,5,0,0,1,5,5v8a5,5,0,0,1,-5,5h-27a5,5,0,0,1,-5,-5v-8a5,5,0,0,1,5,-5z"></path><g id="node_text12" fill="black"><text id="kity_text_181" text-rendering="inherit" font-size="12" dy=".8em" y="363.5" x="824.5">cmd</text></g></g><g id="minder_node15"><g id="node_expander12" style="cursor: pointer;" display="none"><path id="kity_path_389" fill="white" stroke="gray" d="M819.5,395.5A6,6,0,1,1,807.5,395.5A6,6,0,1,1,819.5,395.5"></path><path id="kity_path_390" fill="none" stroke="gray"></path></g><path id="node_outline13" fill="none" stroke="none" d="M824.5,386.5h46a5,5,0,0,1,5,5v8a5,5,0,0,1,-5,5h-46a5,5,0,0,1,-5,-5v-8a5,5,0,0,1,5,-5z"></path><g id="node_text13" fill="black"><text id="kity_text_183" text-rendering="inherit" font-size="12" dy=".8em" y="389.5" x="824.5">userMgr</text></g></g><g id="minder_node16"><g id="node_expander13" style="cursor: pointer;" display="none"><path id="kity_path_392" fill="white" stroke="gray" d="M819.5,421.5A6,6,0,1,1,807.5,421.5A6,6,0,1,1,819.5,421.5"></path><path id="kity_path_393" fill="none" stroke="gray"></path></g><path id="node_outline14" fill="none" stroke="none" d="M824.5,412.5h39a5,5,0,0,1,5,5v8a5,5,0,0,1,-5,5h-39a5,5,0,0,1,-5,-5v-8a5,5,0,0,1,5,-5z"></path><g id="node_text14" fill="black"><text id="kity_text_185" text-rendering="inherit" font-size="12" dy=".8em" y="415.5" x="824.5">fileMgr</text></g></g><g id="minder_node17"><g id="node_expander14" style="cursor: pointer;" display="none"><path id="kity_path_395" fill="white" stroke="gray" d="M819.5,447.5A6,6,0,1,1,807.5,447.5A6,6,0,1,1,819.5,447.5"></path><path id="kity_path_396" fill="none" stroke="gray"></path></g><path id="node_outline15" fill="none" stroke="none" d="M824.5,438.5h50a5,5,0,0,1,5,5v8a5,5,0,0,1,-5,5h-50a5,5,0,0,1,-5,-5v-8a5,5,0,0,1,5,-5z"></path><g id="node_text15" fill="black"><text id="kity_text_187" text-rendering="inherit" font-size="12" dy=".8em" y="441.5" x="824.5">translate</text></g></g><g id="minder_node18"><g id="node_expander15" style="cursor: pointer;" display="none"><path id="kity_path_398" fill="white" stroke="gray" d="M819.5,473.5A6,6,0,1,1,807.5,473.5A6,6,0,1,1,819.5,473.5"></path><path id="kity_path_399" fill="none" stroke="gray"></path></g><path id="node_outline16" fill="none" stroke="none" d="M824.5,464.5h59a5,5,0,0,1,5,5v8a5,5,0,0,1,-5,5h-59a5,5,0,0,1,-5,-5v-8a5,5,0,0,1,5,-5z"></path><g id="node_text16" fill="black"><text id="kity_text_189" text-rendering="inherit" font-size="12" dy=".8em" y="467.5" x="824.5">rasaPlugin</text></g></g><g id="minder_node19"><g id="node_expander16" style="cursor: pointer;" display="none"><path id="kity_path_401" fill="white" stroke="gray" d="M819.5,499.5A6,6,0,1,1,807.5,499.5A6,6,0,1,1,819.5,499.5"></path><path id="kity_path_402" fill="none" stroke="gray"></path></g><path id="node_outline17" fill="none" stroke="none" d="M824.5,490.5h65a5,5,0,0,1,5,5v8a5,5,0,0,1,-5,5h-65a5,5,0,0,1,-5,-5v-8a5,5,0,0,1,5,-5z"></path><g id="node_text17" fill="black"><text id="kity_text_191" text-rendering="inherit" font-size="12" dy=".8em" y="493.5" x="824.5">nodeStatus</text></g></g><g id="minder_node20"><g id="node_expander17" style="cursor: pointer;" display="none"><path id="kity_path_404" fill="white" stroke="gray" d="M819.5,525.5A6,6,0,1,1,807.5,525.5A6,6,0,1,1,819.5,525.5"></path><path id="kity_path_405" fill="none" stroke="gray"></path></g><path id="node_outline18" fill="none" stroke="none" d="M824.5,516.5h83a5,5,0,0,1,5,5v8a5,5,0,0,1,-5,5h-83a5,5,0,0,1,-5,-5v-8a5,5,0,0,1,5,-5z"></path><g id="node_text18" fill="black"><text id="kity_text_193" text-rendering="inherit" font-size="12" dy=".8em" y="519.5" x="824.5">assistantPlugin</text></g></g><g id="minder_node21"><g id="node_expander18" style="cursor: pointer;" display="none"><path id="kity_path_407" fill="white" stroke="gray" d="M819.5,551.5A6,6,0,1,1,807.5,551.5A6,6,0,1,1,819.5,551.5"></path><path id="kity_path_408" fill="none" stroke="gray"></path></g><path id="node_outline19" fill="none" stroke="none" d="M824.5,542.5h78a5,5,0,0,1,5,5v8a5,5,0,0,1,-5,5h-78a5,5,0,0,1,-5,-5v-8a5,5,0,0,1,5,-5z"></path><g id="node_text19" fill="black"><text id="kity_text_195" text-rendering="inherit" font-size="12" dy=".8em" y="545.5" x="824.5">crawlerPlugin</text></g></g><g id="minder_node22" opacity="1"><g id="node_expander24" style="cursor: pointer;"><path id="kity_path_425" fill="white" stroke="gray" d="M615.5,797.5A6,6,0,1,1,603.5,797.5A6,6,0,1,1,615.5,797.5"></path><path id="kity_path_426" fill="none" stroke="gray" d="M605,797.5L614,797.5"></path></g><path id="node_outline25" fill="rgb(238, 243, 246)" stroke="rgb(115, 161, 191)" d="M619.5,784.5h95a3,3,0,0,1,3,3v20a3,3,0,0,1,-3,3h-95a3,3,0,0,1,-3,-3v-20a3,3,0,0,1,3,-3z" stroke-width="1"></path><g id="node_text25" fill="black"><text id="kity_text_207" text-rendering="inherit" font-size="14" dy=".8em" y="790.5" x="636.5">RasaServ</text></g></g><g id="minder_node26"><g id="node_expander27" style="cursor: pointer;"><path id="kity_path_434" fill="white" stroke="gray" d="M611.5,868.5A6,6,0,1,1,599.5,868.5A6,6,0,1,1,611.5,868.5"></path><path id="kity_path_435" fill="none" stroke="gray" d="M601,868.5L610,868.5"></path></g><path id="node_outline28" fill="rgb(238, 243, 246)" stroke="rgb(115, 161, 191)" d="M615.5,855.5h118a3,3,0,0,1,3,3v20a3,3,0,0,1,-3,3h-118a3,3,0,0,1,-3,-3v-20a3,3,0,0,1,3,-3z" stroke-width="1"></path><g id="node_text28" fill="black"><text id="kity_text_213" text-rendering="inherit" font-size="14" dy=".8em" y="861.5" x="632.5">JarvisMarket</text></g></g><g id="minder_node27"><g id="node_expander25" style="cursor: pointer;" display="none"><path id="kity_path_428" fill="white" stroke="gray" d="M752.5,855.5A6,6,0,1,1,740.5,855.5A6,6,0,1,1,752.5,855.5"></path><path id="kity_path_429" fill="none" stroke="gray"></path></g><path id="node_outline26" fill="none" stroke="none" d="M757.5,846.5h41a5,5,0,0,1,5,5v8a5,5,0,0,1,-5,5h-41a5,5,0,0,1,-5,-5v-8a5,5,0,0,1,5,-5z"></path><g id="node_text26" fill="black"><text id="kity_text_209" text-rendering="inherit" font-size="12" dy=".8em" y="849.5" x="757.5">Market</text></g></g><g id="minder_node28"><g id="node_expander26" style="cursor: pointer;" display="none"><path id="kity_path_431" fill="white" stroke="gray" d="M752.5,881.5A6,6,0,1,1,740.5,881.5A6,6,0,1,1,752.5,881.5"></path><path id="kity_path_432" fill="none" stroke="gray"></path></g><path id="node_outline27" fill="none" stroke="none" d="M757.5,872.5h46a5,5,0,0,1,5,5v8a5,5,0,0,1,-5,5h-46a5,5,0,0,1,-5,-5v-8a5,5,0,0,1,5,-5z"></path><g id="node_text27" fill="black"><text id="kity_text_211" text-rendering="inherit" font-size="12" dy=".8em" y="875.5" x="757.5">hubMgr</text></g></g><g id="minder_node29"><g id="node_expander29" style="cursor: pointer;"><path id="kity_path_440" fill="white" stroke="gray" d="M619.5,928.5A6,6,0,1,1,607.5,928.5A6,6,0,1,1,619.5,928.5"></path><path id="kity_path_441" fill="none" stroke="gray" d="M609,928.5L618,928.5"></path></g><path id="node_outline30" fill="rgb(238, 243, 246)" stroke="rgb(115, 161, 191)" d="M623.5,915.5h117a3,3,0,0,1,3,3v20a3,3,0,0,1,-3,3h-117a3,3,0,0,1,-3,-3v-20a3,3,0,0,1,3,-3z" stroke-width="1"></path><g id="node_text30" fill="black"><text id="kity_text_217" text-rendering="inherit" font-size="14" dy=".8em" y="921.5" x="640.5">JarvisQQBot</text></g></g><g id="minder_node30"><g id="node_expander28" style="cursor: pointer;" display="none"><path id="kity_path_437" fill="white" stroke="gray" d="M759.5,928.5A6,6,0,1,1,747.5,928.5A6,6,0,1,1,759.5,928.5"></path><path id="kity_path_438" fill="none" stroke="gray"></path></g><path id="node_outline29" fill="none" stroke="none" d="M764.5,919.5h38a5,5,0,0,1,5,5v8a5,5,0,0,1,-5,5h-38a5,5,0,0,1,-5,-5v-8a5,5,0,0,1,5,-5z"></path><g id="node_text29" fill="black"><text id="kity_text_215" text-rendering="inherit" font-size="12" dy=".8em" y="922.5" x="764.5">CoolQ</text></g></g><g id="minder_node31"><g id="node_expander30" style="cursor: pointer;" display="none"><path id="kity_path_443" fill="white" stroke="gray" d="M625.5,993.5A6,6,0,1,1,613.5,993.5A6,6,0,1,1,625.5,993.5"></path><path id="kity_path_444" fill="none" stroke="gray"></path></g><path id="node_outline31" fill="rgb(238, 243, 246)" stroke="rgb(115, 161, 191)" d="M629.5,980.5h149a3,3,0,0,1,3,3v20a3,3,0,0,1,-3,3h-149a3,3,0,0,1,-3,-3v-20a3,3,0,0,1,3,-3z" stroke-width="1"></path><g id="node_text31" fill="black"><text id="kity_text_219" text-rendering="inherit" font-size="14" dy=".8em" y="986.5" x="646.5">JarvisWeChatBot</text></g></g><g id="minder_node32"><g id="node_expander34" style="cursor: pointer;"><path id="kity_path_455" fill="white" stroke="gray" d="M770.5,55.5A6,6,0,1,1,758.5,55.5A6,6,0,1,1,770.5,55.5"></path><path id="kity_path_456" fill="none" stroke="gray" d="M760,55.5L769,55.5"></path></g><path id="node_outline35" fill="rgb(238, 243, 246)" stroke="rgb(115, 161, 191)" d="M647.5,42.5h107a3,3,0,0,1,3,3v20a3,3,0,0,1,-3,3h-107a3,3,0,0,1,-3,-3v-20a3,3,0,0,1,3,-3z" stroke-width="1"></path><g id="node_text35" fill="black"><text id="kity_text_227" text-rendering="inherit" font-size="14" dy=".8em" y="48.5" x="664.5">JarvisNews</text></g></g><g id="minder_node33"><g id="node_expander31" style="cursor: pointer;" display="none"><path id="kity_path_446" fill="white" stroke="gray" d="M773.5,29.5A6,6,0,1,1,761.5,29.5A6,6,0,1,1,773.5,29.5"></path><path id="kity_path_447" fill="none" stroke="gray"></path></g><path id="node_outline32" fill="none" stroke="none" d="M778.5,20.5h38a5,5,0,0,1,5,5v8a5,5,0,0,1,-5,5h-38a5,5,0,0,1,-5,-5v-8a5,5,0,0,1,5,-5z"></path><g id="node_text32" fill="black"><text id="kity_text_221" text-rendering="inherit" font-size="12" dy=".8em" y="23.5" x="778.5">render</text></g></g><g id="minder_node34"><g id="node_expander32" style="cursor: pointer;" display="none"><path id="kity_path_449" fill="white" stroke="gray" d="M773.5,55.5A6,6,0,1,1,761.5,55.5A6,6,0,1,1,773.5,55.5"></path><path id="kity_path_450" fill="none" stroke="gray"></path></g><path id="node_outline33" fill="none" stroke="none" d="M778.5,46.5h22a5,5,0,0,1,5,5v8a5,5,0,0,1,-5,5h-22a5,5,0,0,1,-5,-5v-8a5,5,0,0,1,5,-5z"></path><g id="node_text33" fill="black"><text id="kity_text_223" text-rendering="inherit" font-size="12" dy=".8em" y="49.5" x="778.5">NLP</text></g></g><g id="minder_node35"><g id="node_expander33" style="cursor: pointer;" display="none"><path id="kity_path_452" fill="white" stroke="gray" d="M773.5,81.5A6,6,0,1,1,761.5,81.5A6,6,0,1,1,773.5,81.5"></path><path id="kity_path_453" fill="none" stroke="gray"></path></g><path id="node_outline34" fill="none" stroke="none" d="M778.5,72.5h75a5,5,0,0,1,5,5v8a5,5,0,0,1,-5,5h-75a5,5,0,0,1,-5,-5v-8a5,5,0,0,1,5,-5z"></path><g id="node_text34" fill="black"><text id="kity_text_225" text-rendering="inherit" font-size="12" dy=".8em" y="75.5" x="778.5">Elasticsearch</text></g></g><g id="minder_node36"><g id="node_expander35" style="cursor: pointer;" display="none"><path id="kity_path_458" fill="white" stroke="gray" d="M748.5,557.5A6,6,0,1,1,736.5,557.5A6,6,0,1,1,748.5,557.5"></path><path id="kity_path_459" fill="none" stroke="gray"></path></g><path id="node_outline36" fill="rgb(238, 243, 246)" stroke="rgb(115, 161, 191)" d="M609.5,544.5h123a3,3,0,0,1,3,3v20a3,3,0,0,1,-3,3h-123a3,3,0,0,1,-3,-3v-20a3,3,0,0,1,3,-3z" stroke-width="1"></path><g id="node_text36" fill="black"><text id="kity_text_229" text-rendering="inherit" font-size="14" dy=".8em" y="550.5" x="626.5">JarvisFSNode</text></g></g><g id="minder_node37"><g id="node_expander38" style="cursor: pointer;"><path id="kity_path_467" fill="white" stroke="gray" d="M435.5,489.5A6,6,0,1,1,423.5,489.5A6,6,0,1,1,435.5,489.5"></path><path id="kity_path_468" fill="none" stroke="gray" d="M425,489.5L434,489.5"></path></g><path id="node_outline39" fill="rgb(238, 243, 246)" stroke="rgb(115, 161, 191)" d="M327.5,476.5h92a3,3,0,0,1,3,3v20a3,3,0,0,1,-3,3h-92a3,3,0,0,1,-3,-3v-20a3,3,0,0,1,3,-3z" stroke-width="1"></path><g id="node_text39" fill="black"><text id="kity_text_235" text-rendering="inherit" font-size="14" dy=".8em" y="482.5" x="344.5">Natasha</text></g></g><g id="minder_node38"><g id="node_expander36" style="cursor: pointer;" display="none"><path id="kity_path_461" fill="white" stroke="gray" d="M320.5,463.5A6,6,0,1,1,308.5,463.5A6,6,0,1,1,320.5,463.5"></path><path id="kity_path_462" fill="none" stroke="gray"></path></g><path id="node_outline37" fill="none" stroke="none" d="M236.5,454.5h67a5,5,0,0,1,5,5v8a5,5,0,0,1,-5,5h-67a5,5,0,0,1,-5,-5v-8a5,5,0,0,1,5,-5z"></path><g id="node_text37" fill="black"><text id="kity_text_231" text-rendering="inherit" font-size="12" dy=".8em" y="457.5" x="236.5">DTDataServ</text></g></g><g id="minder_node39"><g id="node_expander37" style="cursor: pointer;" display="none"><path id="kity_path_464" fill="white" stroke="gray" d="M320.5,489.5A6,6,0,1,1,308.5,489.5A6,6,0,1,1,320.5,489.5"></path><path id="kity_path_465" fill="none" stroke="gray"></path></g><path id="node_outline38" fill="none" stroke="none" d="M205.5,480.5h98a5,5,0,0,1,5,5v8a5,5,0,0,1,-5,5h-98a5,5,0,0,1,-5,-5v-8a5,5,0,0,1,5,-5z"></path><g id="node_text38" fill="black"><text id="kity_text_233" text-rendering="inherit" font-size="12" dy=".8em" y="483.5" x="205.5">DTBackOfficeBot</text></g></g><g id="minder_node40" opacity="1"><g id="node_expander49" style="cursor: pointer;"><path id="kity_path_500" fill="white" stroke="gray" d="M707.5,689.5A6,6,0,1,1,695.5,689.5A6,6,0,1,1,707.5,689.5"></path><path id="kity_path_501" fill="none" stroke="gray" d="M697,689.5L706,689.5"></path></g><path id="node_outline50" fill="rgb(238, 243, 246)" stroke="rgb(115, 161, 191)" d="M630.5,676.5h61a3,3,0,0,1,3,3v20a3,3,0,0,1,-3,3h-61a3,3,0,0,1,-3,-3v-20a3,3,0,0,1,3,-3z" stroke-width="1"></path><g id="node_text50" fill="black"><text id="kity_text_257" text-rendering="inherit" font-size="14" dy=".8em" y="682.5" x="647.5">RPA</text></g></g><g id="minder_node51"><g id="node_expander56" style="cursor: pointer;"><path id="kity_path_521" fill="white" stroke="gray" d="M433.5,652.5A6,6,0,1,1,421.5,652.5A6,6,0,1,1,433.5,652.5"></path><path id="kity_path_522" fill="none" stroke="gray" d="M423,652.5L432,652.5"></path></g><path id="node_outline57" fill="rgb(238, 243, 246)" stroke="rgb(115, 161, 191)" d="M346.5,639.5h71a3,3,0,0,1,3,3v20a3,3,0,0,1,-3,3h-71a3,3,0,0,1,-3,-3v-20a3,3,0,0,1,3,-3z" stroke-width="1"></path><g id="node_text57" fill="black"><text id="kity_text_271" text-rendering="inherit" font-size="14" dy=".8em" y="645.5" x="363.5">Jarvis</text></g></g><g id="minder_node52"><g id="node_expander53" style="cursor: pointer;"><path id="kity_path_512" fill="white" stroke="gray" d="M339.5,626.5A6,6,0,1,1,327.5,626.5A6,6,0,1,1,339.5,626.5"></path><path id="kity_path_513" fill="none" stroke="gray" d="M329,626.5L338,626.5"></path></g><path id="node_outline54" fill="none" stroke="none" d="M242.5,617.5h80a5,5,0,0,1,5,5v8a5,5,0,0,1,-5,5h-80a5,5,0,0,1,-5,-5v-8a5,5,0,0,1,5,-5z"></path><g id="node_text54" fill="black"><text id="kity_text_265" text-rendering="inherit" font-size="12" dy=".8em" y="620.5" x="242.5">JarvisAssistant</text></g></g><g id="minder_node53"><g id="node_expander50" style="cursor: pointer;" display="none"><path id="kity_path_503" fill="white" stroke="gray" d="M233.5,600.5A6,6,0,1,1,221.5,600.5A6,6,0,1,1,233.5,600.5"></path><path id="kity_path_504" fill="none" stroke="gray"></path></g><path id="node_outline51" fill="none" stroke="none" d="M163.5,591.5h53a5,5,0,0,1,5,5v8a5,5,0,0,1,-5,5h-53a5,5,0,0,1,-5,-5v-8a5,5,0,0,1,5,-5z"></path><g id="node_text51" fill="black"><text id="kity_text_259" text-rendering="inherit" font-size="12" dy=".8em" y="594.5" x="163.5">userData</text></g></g><g id="minder_node54"><g id="node_expander51" style="cursor: pointer;" display="none"><path id="kity_path_506" fill="white" stroke="gray" d="M233.5,626.5A6,6,0,1,1,221.5,626.5A6,6,0,1,1,233.5,626.5"></path><path id="kity_path_507" fill="none" stroke="gray"></path></g><path id="node_outline52" fill="none" stroke="none" d="M143.5,617.5h73a5,5,0,0,1,5,5v8a5,5,0,0,1,-5,5h-73a5,5,0,0,1,-5,-5v-8a5,5,0,0,1,5,-5z"></path><g id="node_text52" fill="black"><text id="kity_text_261" text-rendering="inherit" font-size="12" dy=".8em" y="620.5" x="143.5">keywordMgr</text></g></g><g id="minder_node55"><g id="node_expander52" style="cursor: pointer;" display="none"><path id="kity_path_509" fill="white" stroke="gray" d="M233.5,652.5A6,6,0,1,1,221.5,652.5A6,6,0,1,1,233.5,652.5"></path><path id="kity_path_510" fill="none" stroke="gray"></path></g><path id="node_outline53" fill="none" stroke="none" d="M138.5,643.5h78a5,5,0,0,1,5,5v8a5,5,0,0,1,-5,5h-78a5,5,0,0,1,-5,-5v-8a5,5,0,0,1,5,-5z"></path><g id="node_text53" fill="black"><text id="kity_text_263" text-rendering="inherit" font-size="12" dy=".8em" y="646.5" x="138.5">passwordMgr</text></g></g><g id="minder_node56"><g id="node_expander55" style="cursor: pointer;"><path id="kity_path_518" fill="white" stroke="gray" d="M339.5,678.5A6,6,0,1,1,327.5,678.5A6,6,0,1,1,339.5,678.5"></path><path id="kity_path_519" fill="none" stroke="gray" d="M329,678.5L338,678.5"></path></g><path id="node_outline56" fill="none" stroke="none" d="M278.5,669.5h44a5,5,0,0,1,5,5v8a5,5,0,0,1,-5,5h-44a5,5,0,0,1,-5,-5v-8a5,5,0,0,1,5,-5z"></path><g id="node_text56" fill="black"><text id="kity_text_269" text-rendering="inherit" font-size="12" dy=".8em" y="672.5" x="278.5">JarvisCI</text></g></g><g id="minder_node57"><g id="node_expander54" style="cursor: pointer;" display="none"><path id="kity_path_515" fill="white" stroke="gray" d="M269.5,678.5A6,6,0,1,1,257.5,678.5A6,6,0,1,1,269.5,678.5"></path><path id="kity_path_516" fill="none" stroke="gray"></path></g><path id="node_outline55" fill="none" stroke="none" d="M240.5,669.5h12a5,5,0,0,1,5,5v8a5,5,0,0,1,-5,5h-12a5,5,0,0,1,-5,-5v-8a5,5,0,0,1,5,-5z"></path><g id="node_text55" fill="black"><text id="kity_text_267" text-rendering="inherit" font-size="12" dy=".8em" y="672.5" x="240.5">CI</text></g></g><g id="minder_node58"><g id="node_expander62" style="cursor: pointer;"><path id="kity_path_539" fill="white" stroke="gray" d="M437.5,406.5A6,6,0,1,1,425.5,406.5A6,6,0,1,1,437.5,406.5"></path><path id="kity_path_540" fill="none" stroke="gray" d="M427,406.5L436,406.5"></path></g><path id="node_outline63" fill="rgb(238, 243, 246)" stroke="rgb(115, 161, 191)" d="M357.5,393.5h64a3,3,0,0,1,3,3v20a3,3,0,0,1,-3,3h-64a3,3,0,0,1,-3,-3v-20a3,3,0,0,1,3,-3z" stroke-width="1"></path><g id="node_text63" fill="black"><text id="kity_text_283" text-rendering="inherit" font-size="14" dy=".8em" y="399.5" x="374.5">Ada</text></g></g><g id="minder_node59"><g id="node_expander61" style="cursor: pointer;"><path id="kity_path_536" fill="white" stroke="gray" d="M350.5,406.5A6,6,0,1,1,338.5,406.5A6,6,0,1,1,350.5,406.5"></path><path id="kity_path_537" fill="none" stroke="gray" d="M340,406.5L349,406.5"></path></g><path id="node_outline62" fill="none" stroke="none" d="M262.5,397.5h71a5,5,0,0,1,5,5v8a5,5,0,0,1,-5,5h-71a5,5,0,0,1,-5,-5v-8a5,5,0,0,1,5,-5z"></path><g id="node_text62" fill="black"><text id="kity_text_281" text-rendering="inherit" font-size="12" dy=".8em" y="400.5" x="262.5">JarvisViewer</text></g></g><g id="minder_node60"><g id="node_expander59" style="cursor: pointer;"><path id="kity_path_530" fill="white" stroke="gray" d="M253.5,387.5A6,6,0,1,1,241.5,387.5A6,6,0,1,1,253.5,387.5"></path><path id="kity_path_531" fill="none" stroke="gray" d="M243,387.5L252,387.5"></path></g><path id="node_outline60" fill="none" stroke="none" d="M163.5,378.5h73a5,5,0,0,1,5,5v8a5,5,0,0,1,-5,5h-73a5,5,0,0,1,-5,-5v-8a5,5,0,0,1,5,-5z"></path><g id="node_text60" fill="black"><text id="kity_text_277" text-rendering="inherit" font-size="12" dy=".8em" y="381.5" x="163.5">markdown-it</text></g></g><g id="minder_node61"><g id="node_expander57" style="cursor: pointer;" display="none"><path id="kity_path_524" fill="white" stroke="gray" d="M151.5,375.5A6,6,0,1,1,139.5,375.5A6,6,0,1,1,151.5,375.5"></path><path id="kity_path_525" fill="none" stroke="gray"></path></g><path id="node_outline58" fill="none" stroke="none" d="M27.5,366.5h107a5,5,0,0,1,5,5v8a5,5,0,0,1,-5,5h-107a5,5,0,0,1,-5,-5v-8a5,5,0,0,1,5,-5z"></path><g id="node_text58" fill="black"><text id="kity_text_273" text-rendering="inherit" font-size="12" dy=".8em" y="369.5" x="27.5">jarvisViewerPlugins</text></g></g><g id="minder_node62"><g id="node_expander58" style="cursor: pointer;" display="none"><path id="kity_path_527" fill="white" stroke="gray" d="M154.5,400.5A6,6,0,1,1,142.5,400.5A6,6,0,1,1,154.5,400.5"></path><path id="kity_path_528" fill="none" stroke="gray"></path></g><path id="node_outline59" fill="none" stroke="none" d="M25.5,391.5h112a5,5,0,0,1,5,5v8a5,5,0,0,1,-5,5h-112a5,5,0,0,1,-5,-5v-8a5,5,0,0,1,5,-5z"></path><g id="node_text59" fill="black"><text id="kity_text_275" text-rendering="inherit" font-size="12" dy=".8em" y="394.5" x="25.5">graphRenderPlugin</text></g></g><g id="minder_node63"><g id="node_expander60" style="cursor: pointer;" display="none"><path id="kity_path_533" fill="white" stroke="gray" d="M253.5,426.5A6,6,0,1,1,241.5,426.5A6,6,0,1,1,253.5,426.5"></path><path id="kity_path_534" fill="none" stroke="gray"></path></g><path id="node_outline61" fill="none" stroke="none" d="M185.5,417.5h51a5,5,0,0,1,5,5v8a5,5,0,0,1,-5,5h-51a5,5,0,0,1,-5,-5v-8a5,5,0,0,1,5,-5z"></path><g id="node_text61" fill="black"><text id="kity_text_279" text-rendering="inherit" font-size="12" dy=".8em" y="420.5" x="185.5">dataMgr</text></g></g><g id="minder_node64"><g id="node_expander65" style="cursor: pointer;"><path id="kity_path_548" fill="white" stroke="gray" d="M447.5,775.5A6,6,0,1,1,435.5,775.5A6,6,0,1,1,447.5,775.5"></path><path id="kity_path_549" fill="none" stroke="gray" d="M437,775.5L446,775.5"></path></g><path id="node_outline66" fill="rgb(238, 243, 246)" stroke="rgb(115, 161, 191)" d="M346.5,762.5h85a3,3,0,0,1,3,3v20a3,3,0,0,1,-3,3h-85a3,3,0,0,1,-3,-3v-20a3,3,0,0,1,3,-3z" stroke-width="1"></path><g id="node_text66" fill="black"><text id="kity_text_289" text-rendering="inherit" font-size="14" dy=".8em" y="768.5" x="363.5">Parzival</text></g></g><g id="minder_node65"><g id="node_expander63" style="cursor: pointer;" display="none"><path id="kity_path_542" fill="white" stroke="gray" d="M339.5,762.5A6,6,0,1,1,327.5,762.5A6,6,0,1,1,339.5,762.5"></path><path id="kity_path_543" fill="none" stroke="gray"></path></g><path id="node_outline64" fill="none" stroke="none" d="M294.5,753.5h28a5,5,0,0,1,5,5v8a5,5,0,0,1,-5,5h-28a5,5,0,0,1,-5,-5v-8a5,5,0,0,1,5,-5z"></path><g id="node_text64" fill="black"><text id="kity_text_285" text-rendering="inherit" font-size="12" dy=".8em" y="756.5" x="294.5">Pixi.js</text></g></g><g id="minder_node66"><g id="node_expander64" style="cursor: pointer;" display="none"><path id="kity_path_545" fill="white" stroke="gray" d="M339.5,788.5A6,6,0,1,1,327.5,788.5A6,6,0,1,1,339.5,788.5"></path><path id="kity_path_546" fill="none" stroke="gray"></path></g><path id="node_outline65" fill="none" stroke="none" d="M251.5,779.5h71a5,5,0,0,1,5,5v8a5,5,0,0,1,-5,5h-71a5,5,0,0,1,-5,-5v-8a5,5,0,0,1,5,-5z"></path><g id="node_text65" fill="black"><text id="kity_text_287" text-rendering="inherit" font-size="12" dy=".8em" y="782.5" x="251.5">Tensorflow.js</text></g></g><g id="minder_node67"><g id="node_expander66" style="cursor: pointer;" display="none"><path id="kity_path_556" fill="white" stroke="gray" d="M320.5,515.5A6,6,0,1,1,308.5,515.5A6,6,0,1,1,320.5,515.5"></path><path id="kity_path_557" fill="none" stroke="gray"></path></g><path id="node_outline67" fill="none" stroke="none" d="M216.5,506.5h87a5,5,0,0,1,5,5v8a5,5,0,0,1,-5,5h-87a5,5,0,0,1,-5,-5v-8a5,5,0,0,1,5,-5z" stroke-width="3"></path><g id="node_text67" fill="black"><text id="kity_text_553" text-rendering="inherit" font-size="12" dy=".8em" y="509.5" x="216.5">GDD algorithm</text></g></g><g id="minder_node23"><g id="node_expander21" style="cursor: pointer;" display="none"><path id="kity_path_416" fill="white" stroke="gray" d="M733.5,771.5A6,6,0,1,1,721.5,771.5A6,6,0,1,1,733.5,771.5"></path><path id="kity_path_417" fill="none" stroke="gray"></path></g><path id="node_outline22" fill="none" stroke="none" d="M738.5,762.5h50a5,5,0,0,1,5,5v8a5,5,0,0,1,-5,5h-50a5,5,0,0,1,-5,-5v-8a5,5,0,0,1,5,-5z"></path><g id="node_text22" fill="black"><text id="kity_text_201" text-rendering="inherit" font-size="12" dy=".8em" y="765.5" x="738.5">BERTServ</text></g></g><g id="minder_node24"><g id="node_expander22" style="cursor: pointer;" display="none"><path id="kity_path_419" fill="white" stroke="gray" d="M733.5,797.5A6,6,0,1,1,721.5,797.5A6,6,0,1,1,733.5,797.5"></path><path id="kity_path_420" fill="none" stroke="gray"></path></g><path id="node_outline23" fill="none" stroke="none" d="M738.5,788.5h57a5,5,0,0,1,5,5v8a5,5,0,0,1,-5,5h-57a5,5,0,0,1,-5,-5v-8a5,5,0,0,1,5,-5z"></path><g id="node_text23" fill="black"><text id="kity_text_203" text-rendering="inherit" font-size="12" dy=".8em" y="791.5" x="738.5">RasaCore</text></g></g><g id="minder_node25"><g id="node_expander23" style="cursor: pointer;" display="none"><path id="kity_path_422" fill="white" stroke="gray" d="M733.5,823.5A6,6,0,1,1,721.5,823.5A6,6,0,1,1,733.5,823.5"></path><path id="kity_path_423" fill="none" stroke="gray"></path></g><path id="node_outline24" fill="none" stroke="none" d="M738.5,814.5h51a5,5,0,0,1,5,5v8a5,5,0,0,1,-5,5h-51a5,5,0,0,1,-5,-5v-8a5,5,0,0,1,5,-5z"></path><g id="node_text24" fill="black"><text id="kity_text_205" text-rendering="inherit" font-size="12" dy=".8em" y="817.5" x="738.5">RasaNLU</text></g></g><g id="minder_node43"><g id="node_expander39" style="cursor: pointer;" display="none"><path id="kity_path_470" fill="white" stroke="gray" d="M909.5,579.5A6,6,0,1,1,897.5,579.5A6,6,0,1,1,909.5,579.5"></path><path id="kity_path_471" fill="none" stroke="gray"></path></g><path id="node_outline40" fill="none" stroke="none" d="M914.5,570.5h74a5,5,0,0,1,5,5v8a5,5,0,0,1,-5,5h-74a5,5,0,0,1,-5,-5v-8a5,5,0,0,1,5,-5z"></path><g id="node_text40" fill="black"><text id="kity_text_237" text-rendering="inherit" font-size="12" dy=".8em" y="573.5" x="914.5">translateServ</text></g></g><g id="minder_node44"><g id="node_expander40" style="cursor: pointer;" display="none"><path id="kity_path_473" fill="white" stroke="gray" d="M909.5,605.5A6,6,0,1,1,897.5,605.5A6,6,0,1,1,909.5,605.5"></path><path id="kity_path_474" fill="none" stroke="gray"></path></g><path id="node_outline41" fill="none" stroke="none" d="M914.5,596.5h30a5,5,0,0,1,5,5v8a5,5,0,0,1,-5,5h-30a5,5,0,0,1,-5,-5v-8a5,5,0,0,1,5,-5z"></path><g id="node_text41" fill="black"><text id="kity_text_239" text-rendering="inherit" font-size="12" dy=".8em" y="599.5" x="914.5">news</text></g></g><g id="minder_node45"><g id="node_expander41" style="cursor: pointer;" display="none"><path id="kity_path_476" fill="white" stroke="gray" d="M909.5,631.5A6,6,0,1,1,897.5,631.5A6,6,0,1,1,909.5,631.5"></path><path id="kity_path_477" fill="none" stroke="gray"></path></g><path id="node_outline42" fill="none" stroke="none" d="M914.5,622.5h86a5,5,0,0,1,5,5v8a5,5,0,0,1,-5,5h-86a5,5,0,0,1,-5,-5v-8a5,5,0,0,1,5,-5z"></path><g id="node_text42" fill="black"><text id="kity_text_241" text-rendering="inherit" font-size="12" dy=".8em" y="625.5" x="914.5">confluenceBot</text></g></g><g id="minder_node46"><g id="node_expander42" style="cursor: pointer;" display="none"><path id="kity_path_479" fill="white" stroke="gray" d="M909.5,657.5A6,6,0,1,1,897.5,657.5A6,6,0,1,1,909.5,657.5"></path><path id="kity_path_480" fill="none" stroke="gray"></path></g><path id="node_outline43" fill="none" stroke="none" d="M914.5,648.5h52a5,5,0,0,1,5,5v8a5,5,0,0,1,-5,5h-52a5,5,0,0,1,-5,-5v-8a5,5,0,0,1,5,-5z"></path><g id="node_text43" fill="black"><text id="kity_text_243" text-rendering="inherit" font-size="12" dy=".8em" y="651.5" x="914.5">gitlabBot</text></g></g><g id="minder_node47"><g id="node_expander43" style="cursor: pointer;" display="none"><path id="kity_path_482" fill="white" stroke="gray" d="M909.5,683.5A6,6,0,1,1,897.5,683.5A6,6,0,1,1,909.5,683.5"></path><path id="kity_path_483" fill="none" stroke="gray"></path></g><path id="node_outline44" fill="none" stroke="none" d="M914.5,674.5h35a5,5,0,0,1,5,5v8a5,5,0,0,1,-5,5h-35a5,5,0,0,1,-5,-5v-8a5,5,0,0,1,5,-5z"></path><g id="node_text44" fill="black"><text id="kity_text_245" text-rendering="inherit" font-size="12" dy=".8em" y="677.5" x="914.5">jiraBot</text></g></g><g id="minder_node48"><g id="node_expander44" style="cursor: pointer;" display="none"><path id="kity_path_485" fill="white" stroke="gray" d="M909.5,709.5A6,6,0,1,1,897.5,709.5A6,6,0,1,1,909.5,709.5"></path><path id="kity_path_486" fill="none" stroke="gray"></path></g><path id="node_outline45" fill="none" stroke="none" d="M914.5,700.5h38a5,5,0,0,1,5,5v8a5,5,0,0,1,-5,5h-38a5,5,0,0,1,-5,-5v-8a5,5,0,0,1,5,-5z"></path><g id="node_text45" fill="black"><text id="kity_text_247" text-rendering="inherit" font-size="12" dy=".8em" y="703.5" x="914.5">OABot</text></g></g><g id="minder_node42"><g id="node_expander45" style="cursor: pointer;"><path id="kity_path_488" fill="white" stroke="gray" d="M806.5,644.5A6,6,0,1,1,794.5,644.5A6,6,0,1,1,806.5,644.5"></path><path id="kity_path_489" fill="none" stroke="gray" d="M796,644.5L805,644.5"></path></g><path id="node_outline46" fill="none" stroke="none" d="M811.5,635.5h77a5,5,0,0,1,5,5v8a5,5,0,0,1,-5,5h-77a5,5,0,0,1,-5,-5v-8a5,5,0,0,1,5,-5z"></path><g id="node_text46" fill="black"><text id="kity_text_249" text-rendering="inherit" font-size="12" dy=".8em" y="638.5" x="811.5">JarvisCrawler</text></g></g><g id="minder_node41"><g id="node_expander46" style="cursor: pointer;"><path id="kity_path_491" fill="white" stroke="gray" d="M710.5,644.5A6,6,0,1,1,698.5,644.5A6,6,0,1,1,710.5,644.5"></path><path id="kity_path_492" fill="none" stroke="gray" d="M700,644.5L709,644.5"></path></g><path id="node_outline47" fill="none" stroke="none" d="M715.5,635.5h70a5,5,0,0,1,5,5v8a5,5,0,0,1,-5,5h-70a5,5,0,0,1,-5,-5v-8a5,5,0,0,1,5,-5z"></path><g id="node_text47" fill="black"><text id="kity_text_251" text-rendering="inherit" font-size="12" dy=".8em" y="638.5" x="715.5">WebContorl</text></g></g><g id="minder_node50"><g id="node_expander47" style="cursor: pointer;" display="none"><path id="kity_path_494" fill="white" stroke="gray" d="M819.5,735.5A6,6,0,1,1,807.5,735.5A6,6,0,1,1,819.5,735.5"></path><path id="kity_path_495" fill="none" stroke="gray"></path></g><path id="node_outline48" fill="none" stroke="none" d="M824.5,726.5h54a5,5,0,0,1,5,5v8a5,5,0,0,1,-5,5h-54a5,5,0,0,1,-5,-5v-8a5,5,0,0,1,5,-5z"></path><g id="node_text48" fill="black"><text id="kity_text_253" text-rendering="inherit" font-size="12" dy=".8em" y="729.5" x="824.5">ADBCore</text></g></g><g id="minder_node49"><g id="node_expander48" style="cursor: pointer;"><path id="kity_path_497" fill="white" stroke="gray" d="M710.5,735.5A6,6,0,1,1,698.5,735.5A6,6,0,1,1,710.5,735.5"></path><path id="kity_path_498" fill="none" stroke="gray" d="M700,735.5L709,735.5"></path></g><path id="node_outline49" fill="none" stroke="none" d="M715.5,726.5h83a5,5,0,0,1,5,5v8a5,5,0,0,1,-5,5h-83a5,5,0,0,1,-5,-5v-8a5,5,0,0,1,5,-5z"></path><g id="node_text49" fill="black"><text id="kity_text_255" text-rendering="inherit" font-size="12" dy=".8em" y="729.5" x="715.5">MobileControl</text></g></g></g></g></svg>