<svg id="kity_svg_6" xmlns="http://www.w3.org/2000/svg" xmlns:xlink="http://www.w3.org/1999/xlink" version="1.1" width="1019" height="1013" style="background: rgb(251, 251, 251); visibility: visible;" viewBox="0 0 1019 1013"><defs id="kity_defs_7"><linearGradient id="kity_linearGradient_17" x1="0" y1="0" x2="0" y2="1"><stop id="kity_stop_18" offset="0" stop-color="rgb(255, 255, 255)"></stop><stop id="kity_stop_19" offset="1" stop-color="rgb(204, 204, 204)"></stop></linearGradient><marker id="kity_marker_2" orient="auto" refX="6" refY="0" viewBox="-7 -7 14 14" markerWidth="7" markerHeight="7" markerUnits="userSpaceOnUse"><path id="kity_path_3" fill="rgb(115, 161, 191)" stroke="none" d="M6,0A6,6,0,1,1,-6,0A6,6,0,1,1,6,0"></path></marker></defs><g id="kity_g_8"><g id="minder1" text-rendering="optimize-speed"><g id="minder_connect_group1"><path id="kity_path_31" fill="none" stroke="rgb(115, 161, 191)" stroke-width="1" d="M524,552.5A62.5,342,0,0,1,586.5,210.5"></path><path id="kity_path_47" fill="none" stroke="rgb(115, 161, 191)" stroke-width="1" d="M524,552.5A65.5,242,0,0,1,589.5,310.5"></path><path id="kity_path_67" fill="none" stroke="rgb(115, 161, 191)" stroke-width="1" d="M524,552.5A65.5,178,0,0,1,589.5,374.5"></path><path id="kity_path_69" fill="none" stroke="rgb(115, 161, 191)" stroke-width="1" d="M524,552.5A78.5,105,0,0,1,602.5,447.5"></path><path id="kity_path_89" fill="none" stroke="rgb(115, 161, 191)" stroke-width="1" d="M524,552.5A87.5,230,0,0,0,611.5,782.5"></path><path id="kity_path_97" fill="none" stroke="rgb(115, 161, 191)" stroke-width="1" d="M524,552.5A86.5,303,0,0,0,610.5,855.5"></path><path id="kity_path_103" fill="none" stroke="rgb(115, 161, 191)" stroke-width="1" d="M524,552.5A94.5,363,0,0,0,618.5,915.5"></path><path id="kity_path_107" fill="none" stroke="rgb(115, 161, 191)" stroke-width="1" d="M524,552.5A100.5,428,0,0,0,624.5,980.5"></path><path id="kity_path_119" fill="none" stroke="rgb(115, 161, 191)" stroke-width="1" d="M524,552.5A118.5,497,0,0,1,642.5,55.5"></path><path id="kity_path_139" fill="none" stroke="rgb(115, 161, 191)" stroke-width="1" d="M524,552.5A80.5,5,0,0,0,604.5,557.5"></path><path id="kity_path_153" fill="none" stroke="rgb(115, 161, 191)" stroke-width="1" d="M524,552.5A99.5,76,0,0,0,424.5,476.5"></path><path id="kity_path_527" fill="none" stroke="rgb(115, 161, 191)" stroke-width="1" d="M524,552.5A95.5,127,0,0,0,619.5,679.5"></path><path id="kity_path_551" fill="none" stroke="rgb(115, 161, 191)" stroke-width="1" d="M524,552.5A101.5,74,0,0,1,422.5,626.5"></path><path id="kity_path_578" fill="none" stroke="rgb(115, 161, 191)" stroke-width="1" d="M524,552.5A97.5,172,0,0,0,426.5,380.5"></path><path id="kity_path_605" fill="none" stroke="rgb(115, 161, 191)" stroke-width="1" d="M524,552.5A87.5,197,0,0,1,436.5,749.5"></path><path id="kity_path_668" fill="none" stroke="rgb(115, 161, 191)" stroke-width="1" d="M698.5,210.5C701.5,210.5,701.5,144.5,704.5,144.5L788.5,144.5"></path><path id="kity_path_669" fill="none" stroke="rgb(115, 161, 191)" stroke-width="1" d="M698.5,210.5C701.5,210.5,701.5,170.5,704.5,170.5L779.5,170.5"></path><path id="kity_path_670" fill="none" stroke="rgb(115, 161, 191)" stroke-width="1" d="M698.5,210.5C701.5,210.5,701.5,196.5,704.5,196.5L769.5,196.5"></path><path id="kity_path_671" fill="none" stroke="rgb(115, 161, 191)" stroke-width="1" d="M698.5,210.5C701.5,210.5,701.5,222.5,704.5,222.5L814.5,222.5"></path><path id="kity_path_672" fill="none" stroke="rgb(115, 161, 191)" stroke-width="1" d="M698.5,210.5C701.5,210.5,701.5,248.5,704.5,248.5L798.5,248.5"></path><path id="kity_path_673" fill="none" stroke="rgb(115, 161, 191)" stroke-width="1" d="M698.5,210.5C701.5,210.5,701.5,274.5,704.5,274.5L768.5,274.5"></path><path id="kity_path_674" fill="none" stroke="rgb(115, 161, 191)" stroke-width="1" d="M698.5,210.5C701.5,210.5,701.5,300.5,704.5,300.5L786.5,300.5"></path><path id="kity_path_702" fill="none" stroke="rgb(115, 161, 191)" stroke-width="1" d="M803.5,459.5C806.5,459.5,806.5,368.5,809.5,368.5L856.5,368.5"></path><path id="kity_path_703" fill="none" stroke="rgb(115, 161, 191)" stroke-width="1" d="M803.5,459.5C806.5,459.5,806.5,394.5,809.5,394.5L875.5,394.5"></path><path id="kity_path_704" fill="none" stroke="rgb(115, 161, 191)" stroke-width="1" d="M803.5,459.5C806.5,459.5,806.5,420.5,809.5,420.5L868.5,420.5"></path><path id="kity_path_705" fill="none" stroke="rgb(115, 161, 191)" stroke-width="1" d="M803.5,459.5C806.5,459.5,806.5,446.5,809.5,446.5L879.5,446.5"></path><path id="kity_path_706" fill="none" stroke="rgb(115, 161, 191)" stroke-width="1" d="M803.5,459.5C806.5,459.5,806.5,472.5,809.5,472.5L888.5,472.5"></path><path id="kity_path_707" fill="none" stroke="rgb(115, 161, 191)" stroke-width="1" d="M803.5,459.5C806.5,459.5,806.5,498.5,809.5,498.5L894.5,498.5"></path><path id="kity_path_708" fill="none" stroke="rgb(115, 161, 191)" stroke-width="1" d="M803.5,459.5C806.5,459.5,806.5,524.5,809.5,524.5L912.5,524.5"></path><path id="kity_path_709" fill="none" stroke="rgb(115, 161, 191)" stroke-width="1" d="M803.5,459.5C806.5,459.5,806.5,550.5,809.5,550.5L907.5,550.5"></path><path id="kity_path_710" fill="none" stroke="rgb(115, 161, 191)" stroke-width="1" d="M737.5,447.5C740.5,447.5,740.5,459.5,743.5,459.5L803.5,459.5"></path><path id="kity_path_714" fill="none" stroke="rgb(115, 161, 191)" stroke-width="1" d="M714.5,782.5C717.5,782.5,717.5,768.5,720.5,768.5L790.5,768.5"></path><path id="kity_path_715" fill="none" stroke="rgb(115, 161, 191)" stroke-width="1" d="M714.5,782.5C717.5,782.5,717.5,794.5,720.5,794.5L797.5,794.5"></path><path id="kity_path_716" fill="none" stroke="rgb(115, 161, 191)" stroke-width="1" d="M714.5,782.5C717.5,782.5,717.5,820.5,720.5,820.5L791.5,820.5"></path><path id="kity_path_745" fill="none" stroke="rgb(115, 161, 191)" stroke-width="1" d="M757.5,55.5C760.5,55.5,760.5,41.5,763.5,41.5L821.5,41.5"></path><path id="kity_path_746" fill="none" stroke="rgb(115, 161, 191)" stroke-width="1" d="M757.5,55.5C760.5,55.5,760.5,67.5,763.5,67.5L805.5,67.5"></path><path id="kity_path_747" fill="none" stroke="rgb(115, 161, 191)" stroke-width="1" d="M757.5,55.5C760.5,55.5,760.5,93.5,763.5,93.5L858.5,93.5"></path><path id="kity_path_748" fill="none" stroke="rgb(115, 161, 191)" stroke-width="1" d="M324.5,476.5C321.5,476.5,321.5,475.5,318.5,475.5L231.5,475.5"></path><path id="kity_path_749" fill="none" stroke="rgb(115, 161, 191)" stroke-width="1" d="M324.5,476.5C321.5,476.5,321.5,501.5,318.5,501.5L200.5,501.5"></path><path id="kity_path_750" fill="none" stroke="rgb(115, 161, 191)" stroke-width="1" d="M237.5,612.5C234.5,612.5,234.5,586.5,231.5,586.5L158.5,586.5"></path><path id="kity_path_751" fill="none" stroke="rgb(115, 161, 191)" stroke-width="1" d="M237.5,612.5C234.5,612.5,234.5,612.5,231.5,612.5L138.5,612.5"></path><path id="kity_path_752" fill="none" stroke="rgb(115, 161, 191)" stroke-width="1" d="M237.5,612.5C234.5,612.5,234.5,638.5,231.5,638.5L133.5,638.5"></path><path id="kity_path_753" fill="none" stroke="rgb(115, 161, 191)" stroke-width="1" d="M343.5,626.5C340.5,626.5,340.5,612.5,337.5,612.5L237.5,612.5"></path><path id="kity_path_754" fill="none" stroke="rgb(115, 161, 191)" stroke-width="1" d="M273.5,664.5C270.5,664.5,270.5,664.5,267.5,664.5L235.5,664.5"></path><path id="kity_path_755" fill="none" stroke="rgb(115, 161, 191)" stroke-width="1" d="M343.5,626.5C340.5,626.5,340.5,664.5,337.5,664.5L273.5,664.5"></path><path id="kity_path_756" fill="none" stroke="rgb(115, 161, 191)" stroke-width="1" d="M343.5,749.5C340.5,749.5,340.5,748.5,337.5,748.5L289.5,748.5"></path><path id="kity_path_757" fill="none" stroke="rgb(115, 161, 191)" stroke-width="1" d="M343.5,749.5C340.5,749.5,340.5,774.5,337.5,774.5L246.5,774.5"></path><path id="kity_path_758" fill="none" stroke="rgb(115, 161, 191)" stroke-width="1" d="M158.5,373.5C154,373.5,154,361.5,149.5,361.5L22.5,361.5"></path><path id="kity_path_759" fill="none" stroke="rgb(115, 161, 191)" stroke-width="1" d="M158.5,373.5C155.5,373.5,155.5,386.5,152.5,386.5L20.5,386.5"></path><path id="kity_path_760" fill="none" stroke="rgb(115, 161, 191)" stroke-width="1" d="M257.5,392.5C254.5,392.5,254.5,373.5,251.5,373.5L158.5,373.5"></path><path id="kity_path_761" fill="none" stroke="rgb(115, 161, 191)" stroke-width="1" d="M257.5,392.5C254.5,392.5,254.5,412.5,251.5,412.5L180.5,412.5"></path><path id="kity_path_762" fill="none" stroke="rgb(115, 161, 191)" stroke-width="1" d="M354.5,380.5C351.5,380.5,351.5,392.5,348.5,392.5L257.5,392.5"></path><path id="kity_path_763" fill="none" stroke="rgb(115, 161, 191)" stroke-width="1" d="M743.5,915.5C746.5,915.5,746.5,927.5,749.5,927.5L807.5,927.5"></path><path id="kity_path_766" fill="none" stroke="rgb(115, 161, 191)" stroke-width="1" d="M736.5,855.5C739.5,855.5,739.5,854.5,742.5,854.5L803.5,854.5"></path><path id="kity_path_767" fill="none" stroke="rgb(115, 161, 191)" stroke-width="1" d="M736.5,855.5C739.5,855.5,739.5,880.5,742.5,880.5L808.5,880.5"></path><path id="kity_path_768" fill="none" stroke="rgb(115, 161, 191)" stroke-width="1" d="M887.5,646.5C890.5,646.5,890.5,581.5,893.5,581.5L987.5,581.5"></path><path id="kity_path_769" fill="none" stroke="rgb(115, 161, 191)" stroke-width="1" d="M887.5,646.5C890.5,646.5,890.5,607.5,893.5,607.5L943.5,607.5"></path><path id="kity_path_770" fill="none" stroke="rgb(115, 161, 191)" stroke-width="1" d="M887.5,646.5C890.5,646.5,890.5,633.5,893.5,633.5L999.5,633.5"></path><path id="kity_path_771" fill="none" stroke="rgb(115, 161, 191)" stroke-width="1" d="M887.5,646.5C890.5,646.5,890.5,659.5,893.5,659.5L965.5,659.5"></path><path id="kity_path_772" fill="none" stroke="rgb(115, 161, 191)" stroke-width="1" d="M887.5,646.5C890.5,646.5,890.5,685.5,893.5,685.5L948.5,685.5"></path><path id="kity_path_773" fill="none" stroke="rgb(115, 161, 191)" stroke-width="1" d="M887.5,646.5C890.5,646.5,890.5,711.5,893.5,711.5L951.5,711.5"></path><path id="kity_path_774" fill="none" stroke="rgb(115, 161, 191)" stroke-width="1" d="M784.5,646.5C787.5,646.5,787.5,646.5,790.5,646.5L887.5,646.5"></path><path id="kity_path_775" fill="none" stroke="rgb(115, 161, 191)" stroke-width="1" d="M688.5,679.5C691.5,679.5,691.5,646.5,694.5,646.5L784.5,646.5"></path><path id="kity_path_776" fill="none" stroke="rgb(115, 161, 191)" stroke-width="1" d="M797.5,737.5C800.5,737.5,800.5,737.5,803.5,737.5L877.5,737.5"></path><path id="kity_path_777" fill="none" stroke="rgb(115, 161, 191)" stroke-width="1" d="M688.5,679.5C691.5,679.5,691.5,737.5,694.5,737.5L797.5,737.5"></path></g><g id="minder_node1"><path id="node_outline1" fill="rgb(115, 161, 191)" stroke="rgb(115, 161, 191)" d="M479.5,538.5h89a5,5,0,0,1,5,5v18a5,5,0,0,1,-5,5h-89a5,5,0,0,1,-5,-5v-18a5,5,0,0,1,5,-5z" stroke-width="3"></path><g id="node_text1" fill="white"><text id="kity_text_22" text-rendering="inherit" font-size="16" dy=".8em" y="544.5" x="486.5">Hey, Algo</text></g></g><g id="kity_g_14" display="none"><path id="kity_path_15" fill="rgba(0, 92, 153, 0.5)" stroke="none" d="M604.5,465.5h133v8h-133z"></path><path id="kity_path_16" fill="none" stroke="rgb(0, 76, 128)" d="M604.5,465.5L737.5,465.5" stroke-width="1"></path></g><g id="minder_node2" opacity="1"><g id="node_expander8" style="cursor: pointer;"><path id="kity_path_362" fill="white" stroke="gray" d="M587.5,210.5A6,6,0,1,1,575.5,210.5A6,6,0,1,1,587.5,210.5"></path><path id="kity_path_363" fill="none" stroke="gray" d="M577,210.5L586,210.5"></path></g><path id="node_outline9" fill="rgb(238, 243, 246)" stroke="rgb(115, 161, 191)" d="M591.5,197.5h104a3,3,0,0,1,3,3v20a3,3,0,0,1,-3,3h-104a3,3,0,0,1,-3,-3v-20a3,3,0,0,1,3,-3z" stroke-width="1"></path><g id="node_text9" fill="black"><text id="kity_text_169" text-rendering="inherit" font-size="14" dy=".8em" y="203.5" x="608.5">JarvisCore</text></g></g><g id="minder_node10" opacity="1"><g id="node_expander9" style="cursor: pointer;" display="none"><path id="kity_path_365" fill="white" stroke="gray" d="M590.5,310.5A6,6,0,1,1,578.5,310.5A6,6,0,1,1,590.5,310.5"></path><path id="kity_path_366" fill="none" stroke="gray"></path></g><path id="node_outline10" fill="rgb(238, 243, 246)" stroke="rgb(115, 161, 191)" d="M594.5,297.5h87a3,3,0,0,1,3,3v20a3,3,0,0,1,-3,3h-87a3,3,0,0,1,-3,-3v-20a3,3,0,0,1,3,-3z" stroke-width="1"></path><g id="node_text10" fill="black"><text id="kity_text_171" text-rendering="inherit" font-size="14" dy=".8em" y="303.5" x="611.5">JarvisSH</text></g></g><g id="minder_node20" opacity="1"><g id="node_expander19" style="cursor: pointer;" display="none"><path id="kity_path_395" fill="white" stroke="gray" d="M590.5,374.5A6,6,0,1,1,578.5,374.5A6,6,0,1,1,590.5,374.5"></path><path id="kity_path_396" fill="none" stroke="gray"></path></g><path id="node_outline20" fill="rgb(238, 243, 246)" stroke="rgb(115, 161, 191)" d="M594.5,361.5h119a3,3,0,0,1,3,3v20a3,3,0,0,1,-3,3h-119a3,3,0,0,1,-3,-3v-20a3,3,0,0,1,3,-3z" stroke-width="1"></path><g id="node_text20" fill="black"><text id="kity_text_191" text-rendering="inherit" font-size="14" dy=".8em" y="367.5" x="611.5">JarvisTeleBot</text></g></g><g id="minder_node21" opacity="1"><g id="node_expander29" style="cursor: pointer;"><path id="kity_path_425" fill="white" stroke="gray" d="M603.5,447.5A6,6,0,1,1,591.5,447.5A6,6,0,1,1,603.5,447.5"></path><path id="kity_path_426" fill="none" stroke="gray" d="M593,447.5L602,447.5"></path></g><path id="node_outline30" fill="rgb(238, 243, 246)" stroke="rgb(115, 161, 191)" d="M607.5,434.5h127a3,3,0,0,1,3,3v20a3,3,0,0,1,-3,3h-127a3,3,0,0,1,-3,-3v-20a3,3,0,0,1,3,-3z" stroke-width="1"></path><g id="node_text30" fill="black"><text id="kity_text_211" text-rendering="inherit" font-size="14" dy=".8em" y="440.5" x="624.5">JarvisChatBot</text></g></g><g id="minder_node31" opacity="1"><g id="node_expander33" style="cursor: pointer;"><path id="kity_path_437" fill="white" stroke="gray" d="M612.5,782.5A6,6,0,1,1,600.5,782.5A6,6,0,1,1,612.5,782.5"></path><path id="kity_path_438" fill="none" stroke="gray" d="M602,782.5L611,782.5"></path></g><path id="node_outline34" fill="rgb(238, 243, 246)" stroke="rgb(115, 161, 191)" d="M616.5,769.5h95a3,3,0,0,1,3,3v20a3,3,0,0,1,-3,3h-95a3,3,0,0,1,-3,-3v-20a3,3,0,0,1,3,-3z" stroke-width="1"></path><g id="node_text34" fill="black"><text id="kity_text_219" text-rendering="inherit" font-size="14" dy=".8em" y="775.5" x="633.5">RasaServ</text></g></g><g id="minder_node35" opacity="1"><g id="node_expander36" style="cursor: pointer;"><path id="kity_path_446" fill="white" stroke="gray" d="M611.5,855.5A6,6,0,1,1,599.5,855.5A6,6,0,1,1,611.5,855.5"></path><path id="kity_path_447" fill="none" stroke="gray" d="M601,855.5L610,855.5"></path></g><path id="node_outline37" fill="rgb(238, 243, 246)" stroke="rgb(115, 161, 191)" d="M615.5,842.5h118a3,3,0,0,1,3,3v20a3,3,0,0,1,-3,3h-118a3,3,0,0,1,-3,-3v-20a3,3,0,0,1,3,-3z" stroke-width="1"></path><g id="node_text37" fill="black"><text id="kity_text_225" text-rendering="inherit" font-size="14" dy=".8em" y="848.5" x="632.5">JarvisMarket</text></g></g><g id="minder_node38" opacity="1"><g id="node_expander38" style="cursor: pointer;"><path id="kity_path_452" fill="white" stroke="gray" d="M619.5,915.5A6,6,0,1,1,607.5,915.5A6,6,0,1,1,619.5,915.5"></path><path id="kity_path_453" fill="none" stroke="gray" d="M609,915.5L618,915.5"></path></g><path id="node_outline39" fill="rgb(238, 243, 246)" stroke="rgb(115, 161, 191)" d="M623.5,902.5h117a3,3,0,0,1,3,3v20a3,3,0,0,1,-3,3h-117a3,3,0,0,1,-3,-3v-20a3,3,0,0,1,3,-3z" stroke-width="1"></path><g id="node_text39" fill="black"><text id="kity_text_229" text-rendering="inherit" font-size="14" dy=".8em" y="908.5" x="640.5">JarvisQQBot</text></g></g><g id="minder_node40" opacity="1"><g id="node_expander39" style="cursor: pointer;" display="none"><path id="kity_path_455" fill="white" stroke="gray" d="M625.5,980.5A6,6,0,1,1,613.5,980.5A6,6,0,1,1,625.5,980.5"></path><path id="kity_path_456" fill="none" stroke="gray"></path></g><path id="node_outline40" fill="rgb(238, 243, 246)" stroke="rgb(115, 161, 191)" d="M629.5,967.5h149a3,3,0,0,1,3,3v20a3,3,0,0,1,-3,3h-149a3,3,0,0,1,-3,-3v-20a3,3,0,0,1,3,-3z" stroke-width="1"></path><g id="node_text40" fill="black"><text id="kity_text_231" text-rendering="inherit" font-size="14" dy=".8em" y="973.5" x="646.5">JarvisWeChatBot</text></g></g><g id="minder_node46" opacity="1"><g id="node_expander48" style="cursor: pointer;"><path id="kity_path_482" fill="white" stroke="gray" d="M770.5,55.5A6,6,0,1,1,758.5,55.5A6,6,0,1,1,770.5,55.5"></path><path id="kity_path_483" fill="none" stroke="gray" d="M760,55.5L769,55.5"></path></g><path id="node_outline49" fill="rgb(238, 243, 246)" stroke="rgb(115, 161, 191)" d="M647.5,42.5h107a3,3,0,0,1,3,3v20a3,3,0,0,1,-3,3h-107a3,3,0,0,1,-3,-3v-20a3,3,0,0,1,3,-3z" stroke-width="1"></path><g id="node_text49" fill="black"><text id="kity_text_249" text-rendering="inherit" font-size="14" dy=".8em" y="48.5" x="664.5">JarvisNews</text></g></g><g id="minder_node56" opacity="1"><g id="node_expander55" style="cursor: pointer;" display="none"><path id="kity_path_503" fill="white" stroke="gray" d="M748.5,557.5A6,6,0,1,1,736.5,557.5A6,6,0,1,1,748.5,557.5"></path><path id="kity_path_504" fill="none" stroke="gray"></path></g><path id="node_outline56" fill="rgb(238, 243, 246)" stroke="rgb(115, 161, 191)" d="M609.5,544.5h123a3,3,0,0,1,3,3v20a3,3,0,0,1,-3,3h-123a3,3,0,0,1,-3,-3v-20a3,3,0,0,1,3,-3z" stroke-width="1"></path><g id="node_text56" fill="black"><text id="kity_text_263" text-rendering="inherit" font-size="14" dy=".8em" y="550.5" x="626.5">JarvisFSNode</text></g></g><g id="minder_node63" opacity="1"><g id="node_expander62" style="cursor: pointer;"><path id="kity_path_524" fill="white" stroke="gray" d="M435.5,476.5A6,6,0,1,1,423.5,476.5A6,6,0,1,1,435.5,476.5"></path><path id="kity_path_525" fill="none" stroke="gray" d="M425,476.5L434,476.5"></path></g><path id="node_outline63" fill="rgb(238, 243, 246)" stroke="rgb(115, 161, 191)" d="M327.5,463.5h92a3,3,0,0,1,3,3v20a3,3,0,0,1,-3,3h-92a3,3,0,0,1,-3,-3v-20a3,3,0,0,1,3,-3z" stroke-width="1"></path><g id="node_text63" fill="black"><text id="kity_text_277" text-rendering="inherit" font-size="14" dy=".8em" y="469.5" x="344.5">Natasha</text></g></g><g id="minder_node64" opacity="1"><g id="node_expander63" style="cursor: pointer;"><path id="kity_path_532" fill="white" stroke="gray" d="M701.5,679.5A6,6,0,1,1,689.5,679.5A6,6,0,1,1,701.5,679.5"></path><path id="kity_path_533" fill="none" stroke="gray" d="M691,679.5L700,679.5"></path></g><path id="node_outline64" fill="rgb(238, 243, 246)" stroke="rgb(115, 161, 191)" d="M624.5,666.5h61a3,3,0,0,1,3,3v20a3,3,0,0,1,-3,3h-61a3,3,0,0,1,-3,-3v-20a3,3,0,0,1,3,-3z" stroke-width="1"></path><g id="node_text64" fill="black"><text id="kity_text_529" text-rendering="inherit" font-size="14" dy=".8em" y="672.5" x="641.5">RPA</text></g></g><g id="minder_node67" opacity="1"><g id="node_expander66" style="cursor: pointer;"><path id="kity_path_556" fill="white" stroke="gray" d="M433.5,626.5A6,6,0,1,1,421.5,626.5A6,6,0,1,1,433.5,626.5"></path><path id="kity_path_557" fill="none" stroke="gray" d="M423,626.5L432,626.5"></path></g><path id="node_outline67" fill="rgb(238, 243, 246)" stroke="rgb(115, 161, 191)" d="M346.5,613.5h71a3,3,0,0,1,3,3v20a3,3,0,0,1,-3,3h-71a3,3,0,0,1,-3,-3v-20a3,3,0,0,1,3,-3z" stroke-width="1"></path><g id="node_text67" fill="black"><text id="kity_text_553" text-rendering="inherit" font-size="14" dy=".8em" y="619.5" x="363.5">Jarvis</text></g></g><g id="minder_node70" opacity="1"><g id="node_expander69" style="cursor: pointer;"><path id="kity_path_583" fill="white" stroke="gray" d="M437.5,380.5A6,6,0,1,1,425.5,380.5A6,6,0,1,1,437.5,380.5"></path><path id="kity_path_584" fill="none" stroke="gray" d="M427,380.5L436,380.5"></path></g><path id="node_outline70" fill="rgb(238, 243, 246)" stroke="rgb(115, 161, 191)" d="M357.5,367.5h64a3,3,0,0,1,3,3v20a3,3,0,0,1,-3,3h-64a3,3,0,0,1,-3,-3v-20a3,3,0,0,1,3,-3z" stroke-width="1"></path><g id="node_text70" fill="black"><text id="kity_text_580" text-rendering="inherit" font-size="14" dy=".8em" y="373.5" x="374.5">Ada</text></g></g><g id="minder_node72" opacity="1"><g id="node_expander71" style="cursor: pointer;"><path id="kity_path_610" fill="white" stroke="gray" d="M447.5,749.5A6,6,0,1,1,435.5,749.5A6,6,0,1,1,447.5,749.5"></path><path id="kity_path_611" fill="none" stroke="gray" d="M437,749.5L446,749.5"></path></g><path id="node_outline72" fill="rgb(238, 243, 246)" stroke="rgb(115, 161, 191)" d="M346.5,736.5h85a3,3,0,0,1,3,3v20a3,3,0,0,1,-3,3h-85a3,3,0,0,1,-3,-3v-20a3,3,0,0,1,3,-3z" stroke-width="1"></path><g id="node_text72" fill="black"><text id="kity_text_607" text-rendering="inherit" font-size="14" dy=".8em" y="742.5" x="363.5">Parzival</text></g></g><g id="minder_node3"><g id="node_expander1" style="cursor: pointer;" display="none"><path id="kity_path_341" fill="white" stroke="gray" d="M714.5,132.5A6,6,0,1,1,702.5,132.5A6,6,0,1,1,714.5,132.5"></path><path id="kity_path_342" fill="none" stroke="gray"></path></g><path id="node_outline2" fill="none" stroke="none" d="M719.5,123.5h64a5,5,0,0,1,5,5v8a5,5,0,0,1,-5,5h-64a5,5,0,0,1,-5,-5v-8a5,5,0,0,1,5,-5z"></path><g id="node_text2" fill="black"><text id="kity_text_155" text-rendering="inherit" font-size="12" dy=".8em" y="126.5" x="719.5">JarvisNode</text></g></g><g id="minder_node4"><g id="node_expander2" style="cursor: pointer;" display="none"><path id="kity_path_344" fill="white" stroke="gray" d="M714.5,158.5A6,6,0,1,1,702.5,158.5A6,6,0,1,1,714.5,158.5"></path><path id="kity_path_345" fill="none" stroke="gray"></path></g><path id="node_outline3" fill="none" stroke="none" d="M719.5,149.5h55a5,5,0,0,1,5,5v8a5,5,0,0,1,-5,5h-55a5,5,0,0,1,-5,-5v-8a5,5,0,0,1,5,-5z"></path><g id="node_text3" fill="black"><text id="kity_text_157" text-rendering="inherit" font-size="12" dy=".8em" y="152.5" x="719.5">JarvisTask</text></g></g><g id="minder_node5"><g id="node_expander3" style="cursor: pointer;" display="none"><path id="kity_path_347" fill="white" stroke="gray" d="M714.5,184.5A6,6,0,1,1,702.5,184.5A6,6,0,1,1,714.5,184.5"></path><path id="kity_path_348" fill="none" stroke="gray"></path></g><path id="node_outline4" fill="none" stroke="none" d="M719.5,175.5h45a5,5,0,0,1,5,5v8a5,5,0,0,1,-5,5h-45a5,5,0,0,1,-5,-5v-8a5,5,0,0,1,5,-5z"></path><g id="node_text4" fill="black"><text id="kity_text_159" text-rendering="inherit" font-size="12" dy=".8em" y="178.5" x="719.5">CoreDB</text></g></g><g id="minder_node6"><g id="node_expander4" style="cursor: pointer;" display="none"><path id="kity_path_350" fill="white" stroke="gray" d="M714.5,210.5A6,6,0,1,1,702.5,210.5A6,6,0,1,1,714.5,210.5"></path><path id="kity_path_351" fill="none" stroke="gray"></path></g><path id="node_outline5" fill="none" stroke="none" d="M719.5,201.5h90a5,5,0,0,1,5,5v8a5,5,0,0,1,-5,5h-90a5,5,0,0,1,-5,-5v-8a5,5,0,0,1,5,-5z"></path><g id="node_text5" fill="black"><text id="kity_text_161" text-rendering="inherit" font-size="12" dy=".8em" y="204.5" x="719.5">JarvisFileSystem</text></g></g><g id="minder_node7"><g id="node_expander5" style="cursor: pointer;" display="none"><path id="kity_path_353" fill="white" stroke="gray" d="M714.5,236.5A6,6,0,1,1,702.5,236.5A6,6,0,1,1,714.5,236.5"></path><path id="kity_path_354" fill="none" stroke="gray"></path></g><path id="node_outline6" fill="none" stroke="none" d="M719.5,227.5h74a5,5,0,0,1,5,5v8a5,5,0,0,1,-5,5h-74a5,5,0,0,1,-5,-5v-8a5,5,0,0,1,5,-5z"></path><g id="node_text6" fill="black"><text id="kity_text_163" text-rendering="inherit" font-size="12" dy=".8em" y="230.5" x="719.5">JarvisControl</text></g></g><g id="minder_node8"><g id="node_expander6" style="cursor: pointer;" display="none"><path id="kity_path_356" fill="white" stroke="gray" d="M714.5,262.5A6,6,0,1,1,702.5,262.5A6,6,0,1,1,714.5,262.5"></path><path id="kity_path_357" fill="none" stroke="gray"></path></g><path id="node_outline7" fill="none" stroke="none" d="M719.5,253.5h44a5,5,0,0,1,5,5v8a5,5,0,0,1,-5,5h-44a5,5,0,0,1,-5,-5v-8a5,5,0,0,1,5,-5z"></path><g id="node_text7" fill="black"><text id="kity_text_165" text-rendering="inherit" font-size="12" dy=".8em" y="256.5" x="719.5">LogMgr</text></g></g><g id="minder_node9"><g id="node_expander7" style="cursor: pointer;" display="none"><path id="kity_path_359" fill="white" stroke="gray" d="M714.5,288.5A6,6,0,1,1,702.5,288.5A6,6,0,1,1,714.5,288.5"></path><path id="kity_path_360" fill="none" stroke="gray"></path></g><path id="node_outline8" fill="none" stroke="none" d="M719.5,279.5h62a5,5,0,0,1,5,5v8a5,5,0,0,1,-5,5h-62a5,5,0,0,1,-5,-5v-8a5,5,0,0,1,5,-5z"></path><g id="node_text8" fill="black"><text id="kity_text_167" text-rendering="inherit" font-size="12" dy=".8em" y="282.5" x="719.5">ConfigMgr</text></g></g><g id="minder_node23"><g id="node_expander20" style="cursor: pointer;" display="none"><path id="kity_path_398" fill="white" stroke="gray" d="M819.5,356.5A6,6,0,1,1,807.5,356.5A6,6,0,1,1,819.5,356.5"></path><path id="kity_path_399" fill="none" stroke="gray"></path></g><path id="node_outline21" fill="none" stroke="none" d="M824.5,347.5h27a5,5,0,0,1,5,5v8a5,5,0,0,1,-5,5h-27a5,5,0,0,1,-5,-5v-8a5,5,0,0,1,5,-5z"></path><g id="node_text21" fill="black"><text id="kity_text_193" text-rendering="inherit" font-size="12" dy=".8em" y="350.5" x="824.5">cmd</text></g></g><g id="minder_node24"><g id="node_expander21" style="cursor: pointer;" display="none"><path id="kity_path_401" fill="white" stroke="gray" d="M819.5,382.5A6,6,0,1,1,807.5,382.5A6,6,0,1,1,819.5,382.5"></path><path id="kity_path_402" fill="none" stroke="gray"></path></g><path id="node_outline22" fill="none" stroke="none" d="M824.5,373.5h46a5,5,0,0,1,5,5v8a5,5,0,0,1,-5,5h-46a5,5,0,0,1,-5,-5v-8a5,5,0,0,1,5,-5z"></path><g id="node_text22" fill="black"><text id="kity_text_195" text-rendering="inherit" font-size="12" dy=".8em" y="376.5" x="824.5">userMgr</text></g></g><g id="minder_node25"><g id="node_expander22" style="cursor: pointer;" display="none"><path id="kity_path_404" fill="white" stroke="gray" d="M819.5,408.5A6,6,0,1,1,807.5,408.5A6,6,0,1,1,819.5,408.5"></path><path id="kity_path_405" fill="none" stroke="gray"></path></g><path id="node_outline23" fill="none" stroke="none" d="M824.5,399.5h39a5,5,0,0,1,5,5v8a5,5,0,0,1,-5,5h-39a5,5,0,0,1,-5,-5v-8a5,5,0,0,1,5,-5z"></path><g id="node_text23" fill="black"><text id="kity_text_197" text-rendering="inherit" font-size="12" dy=".8em" y="402.5" x="824.5">fileMgr</text></g></g><g id="minder_node26"><g id="node_expander23" style="cursor: pointer;" display="none"><path id="kity_path_407" fill="white" stroke="gray" d="M819.5,434.5A6,6,0,1,1,807.5,434.5A6,6,0,1,1,819.5,434.5"></path><path id="kity_path_408" fill="none" stroke="gray"></path></g><path id="node_outline24" fill="none" stroke="none" d="M824.5,425.5h50a5,5,0,0,1,5,5v8a5,5,0,0,1,-5,5h-50a5,5,0,0,1,-5,-5v-8a5,5,0,0,1,5,-5z"></path><g id="node_text24" fill="black"><text id="kity_text_199" text-rendering="inherit" font-size="12" dy=".8em" y="428.5" x="824.5">translate</text></g></g><g id="minder_node27"><g id="node_expander24" style="cursor: pointer;" display="none"><path id="kity_path_410" fill="white" stroke="gray" d="M819.5,460.5A6,6,0,1,1,807.5,460.5A6,6,0,1,1,819.5,460.5"></path><path id="kity_path_411" fill="none" stroke="gray"></path></g><path id="node_outline25" fill="none" stroke="none" d="M824.5,451.5h59a5,5,0,0,1,5,5v8a5,5,0,0,1,-5,5h-59a5,5,0,0,1,-5,-5v-8a5,5,0,0,1,5,-5z"></path><g id="node_text25" fill="black"><text id="kity_text_201" text-rendering="inherit" font-size="12" dy=".8em" y="454.5" x="824.5">rasaPlugin</text></g></g><g id="minder_node28"><g id="node_expander25" style="cursor: pointer;" display="none"><path id="kity_path_413" fill="white" stroke="gray" d="M819.5,486.5A6,6,0,1,1,807.5,486.5A6,6,0,1,1,819.5,486.5"></path><path id="kity_path_414" fill="none" stroke="gray"></path></g><path id="node_outline26" fill="none" stroke="none" d="M824.5,477.5h65a5,5,0,0,1,5,5v8a5,5,0,0,1,-5,5h-65a5,5,0,0,1,-5,-5v-8a5,5,0,0,1,5,-5z"></path><g id="node_text26" fill="black"><text id="kity_text_203" text-rendering="inherit" font-size="12" dy=".8em" y="480.5" x="824.5">nodeStatus</text></g></g><g id="minder_node29"><g id="node_expander26" style="cursor: pointer;" display="none"><path id="kity_path_416" fill="white" stroke="gray" d="M819.5,512.5A6,6,0,1,1,807.5,512.5A6,6,0,1,1,819.5,512.5"></path><path id="kity_path_417" fill="none" stroke="gray"></path></g><path id="node_outline27" fill="none" stroke="none" d="M824.5,503.5h83a5,5,0,0,1,5,5v8a5,5,0,0,1,-5,5h-83a5,5,0,0,1,-5,-5v-8a5,5,0,0,1,5,-5z"></path><g id="node_text27" fill="black"><text id="kity_text_205" text-rendering="inherit" font-size="12" dy=".8em" y="506.5" x="824.5">assistantPlugin</text></g></g><g id="minder_node30"><g id="node_expander27" style="cursor: pointer;" display="none"><path id="kity_path_419" fill="white" stroke="gray" d="M819.5,538.5A6,6,0,1,1,807.5,538.5A6,6,0,1,1,819.5,538.5"></path><path id="kity_path_420" fill="none" stroke="gray"></path></g><path id="node_outline28" fill="none" stroke="none" d="M824.5,529.5h78a5,5,0,0,1,5,5v8a5,5,0,0,1,-5,5h-78a5,5,0,0,1,-5,-5v-8a5,5,0,0,1,5,-5z"></path><g id="node_text28" fill="black"><text id="kity_text_207" text-rendering="inherit" font-size="12" dy=".8em" y="532.5" x="824.5">crawlerPlugin</text></g></g><g id="minder_node22"><g id="node_expander28" style="cursor: pointer;"><path id="kity_path_422" fill="white" stroke="gray" d="M753.5,447.5A6,6,0,1,1,741.5,447.5A6,6,0,1,1,753.5,447.5"></path><path id="kity_path_423" fill="none" stroke="gray" d="M743,447.5L752,447.5"></path></g><path id="node_outline29" fill="none" stroke="none" d="M758.5,438.5h40a5,5,0,0,1,5,5v8a5,5,0,0,1,-5,5h-40a5,5,0,0,1,-5,-5v-8a5,5,0,0,1,5,-5z"></path><g id="node_text29" fill="black"><text id="kity_text_209" text-rendering="inherit" font-size="12" dy=".8em" y="441.5" x="758.5">plugins</text></g></g><g id="minder_node32"><g id="node_expander30" style="cursor: pointer;" display="none"><path id="kity_path_428" fill="white" stroke="gray" d="M730.5,756.5A6,6,0,1,1,718.5,756.5A6,6,0,1,1,730.5,756.5"></path><path id="kity_path_429" fill="none" stroke="gray"></path></g><path id="node_outline31" fill="none" stroke="none" d="M735.5,747.5h50a5,5,0,0,1,5,5v8a5,5,0,0,1,-5,5h-50a5,5,0,0,1,-5,-5v-8a5,5,0,0,1,5,-5z"></path><g id="node_text31" fill="black"><text id="kity_text_213" text-rendering="inherit" font-size="12" dy=".8em" y="750.5" x="735.5">BERTServ</text></g></g><g id="minder_node33"><g id="node_expander31" style="cursor: pointer;" display="none"><path id="kity_path_431" fill="white" stroke="gray" d="M730.5,782.5A6,6,0,1,1,718.5,782.5A6,6,0,1,1,730.5,782.5"></path><path id="kity_path_432" fill="none" stroke="gray"></path></g><path id="node_outline32" fill="none" stroke="none" d="M735.5,773.5h57a5,5,0,0,1,5,5v8a5,5,0,0,1,-5,5h-57a5,5,0,0,1,-5,-5v-8a5,5,0,0,1,5,-5z"></path><g id="node_text32" fill="black"><text id="kity_text_215" text-rendering="inherit" font-size="12" dy=".8em" y="776.5" x="735.5">RasaCore</text></g></g><g id="minder_node34"><g id="node_expander32" style="cursor: pointer;" display="none"><path id="kity_path_434" fill="white" stroke="gray" d="M730.5,808.5A6,6,0,1,1,718.5,808.5A6,6,0,1,1,730.5,808.5"></path><path id="kity_path_435" fill="none" stroke="gray"></path></g><path id="node_outline33" fill="none" stroke="none" d="M735.5,799.5h51a5,5,0,0,1,5,5v8a5,5,0,0,1,-5,5h-51a5,5,0,0,1,-5,-5v-8a5,5,0,0,1,5,-5z"></path><g id="node_text33" fill="black"><text id="kity_text_217" text-rendering="inherit" font-size="12" dy=".8em" y="802.5" x="735.5">RasaNLU</text></g></g><g id="kity_g_12" display="none"><path id="kity_path_13" fill="none" stroke="rgb(66, 94, 112)" d="M335.5,430.5h92a3,3,0,0,1,3,3v20a3,3,0,0,1,-3,3h-92a3,3,0,0,1,-3,-3v-20a3,3,0,0,1,3,-3z" stroke-width="5"></path></g><g id="minder_node47"><g id="node_expander45" style="cursor: pointer;" display="none"><path id="kity_path_473" fill="white" stroke="gray" d="M773.5,29.5A6,6,0,1,1,761.5,29.5A6,6,0,1,1,773.5,29.5"></path><path id="kity_path_474" fill="none" stroke="gray"></path></g><path id="node_outline46" fill="none" stroke="none" d="M778.5,20.5h38a5,5,0,0,1,5,5v8a5,5,0,0,1,-5,5h-38a5,5,0,0,1,-5,-5v-8a5,5,0,0,1,5,-5z"></path><g id="node_text46" fill="black"><text id="kity_text_243" text-rendering="inherit" font-size="12" dy=".8em" y="23.5" x="778.5">render</text></g></g><g id="minder_node48"><g id="node_expander46" style="cursor: pointer;" display="none"><path id="kity_path_476" fill="white" stroke="gray" d="M773.5,55.5A6,6,0,1,1,761.5,55.5A6,6,0,1,1,773.5,55.5"></path><path id="kity_path_477" fill="none" stroke="gray"></path></g><path id="node_outline47" fill="none" stroke="none" d="M778.5,46.5h22a5,5,0,0,1,5,5v8a5,5,0,0,1,-5,5h-22a5,5,0,0,1,-5,-5v-8a5,5,0,0,1,5,-5z"></path><g id="node_text47" fill="black"><text id="kity_text_245" text-rendering="inherit" font-size="12" dy=".8em" y="49.5" x="778.5">NLP</text></g></g><g id="minder_node49"><g id="node_expander47" style="cursor: pointer;" display="none"><path id="kity_path_479" fill="white" stroke="gray" d="M773.5,81.5A6,6,0,1,1,761.5,81.5A6,6,0,1,1,773.5,81.5"></path><path id="kity_path_480" fill="none" stroke="gray"></path></g><path id="node_outline48" fill="none" stroke="none" d="M778.5,72.5h75a5,5,0,0,1,5,5v8a5,5,0,0,1,-5,5h-75a5,5,0,0,1,-5,-5v-8a5,5,0,0,1,5,-5z"></path><g id="node_text48" fill="black"><text id="kity_text_247" text-rendering="inherit" font-size="12" dy=".8em" y="75.5" x="778.5">Elasticsearch</text></g></g><g id="minder_node11" opacity="1"><g id="node_expander10" style="cursor: pointer;" display="none"><path id="kity_path_368" fill="white" stroke="gray" d="M320.5,463.5A6,6,0,1,1,308.5,463.5A6,6,0,1,1,320.5,463.5"></path><path id="kity_path_369" fill="none" stroke="gray"></path></g><path id="node_outline11" fill="none" stroke="none" d="M236.5,454.5h67a5,5,0,0,1,5,5v8a5,5,0,0,1,-5,5h-67a5,5,0,0,1,-5,-5v-8a5,5,0,0,1,5,-5z" stroke-width="3"></path><g id="node_text11" fill="black"><text id="kity_text_173" text-rendering="inherit" font-size="12" dy=".8em" y="457.5" x="236.5">DTDataServ</text></g></g><g id="minder_node71"><g id="node_expander70" style="cursor: pointer;" display="none"><path id="kity_path_602" fill="white" stroke="gray" d="M320.5,489.5A6,6,0,1,1,308.5,489.5A6,6,0,1,1,320.5,489.5"></path><path id="kity_path_603" fill="none" stroke="gray"></path></g><path id="node_outline71" fill="none" stroke="none" d="M205.5,480.5h98a5,5,0,0,1,5,5v8a5,5,0,0,1,-5,5h-98a5,5,0,0,1,-5,-5v-8a5,5,0,0,1,5,-5z" stroke-width="3"></path><g id="node_text71" fill="black"><text id="kity_text_599" text-rendering="inherit" font-size="12" dy=".8em" y="483.5" x="205.5">DTBackOfficeBot</text></g></g><g id="minder_node60"><g id="node_expander58" style="cursor: pointer;" display="none"><path id="kity_path_512" fill="white" stroke="gray" d="M233.5,574.5A6,6,0,1,1,221.5,574.5A6,6,0,1,1,233.5,574.5"></path><path id="kity_path_513" fill="none" stroke="gray"></path></g><path id="node_outline59" fill="none" stroke="none" d="M163.5,565.5h53a5,5,0,0,1,5,5v8a5,5,0,0,1,-5,5h-53a5,5,0,0,1,-5,-5v-8a5,5,0,0,1,5,-5z"></path><g id="node_text59" fill="black"><text id="kity_text_269" text-rendering="inherit" font-size="12" dy=".8em" y="568.5" x="163.5">userData</text></g></g><g id="minder_node61"><g id="node_expander59" style="cursor: pointer;" display="none"><path id="kity_path_515" fill="white" stroke="gray" d="M233.5,600.5A6,6,0,1,1,221.5,600.5A6,6,0,1,1,233.5,600.5"></path><path id="kity_path_516" fill="none" stroke="gray"></path></g><path id="node_outline60" fill="none" stroke="none" d="M143.5,591.5h73a5,5,0,0,1,5,5v8a5,5,0,0,1,-5,5h-73a5,5,0,0,1,-5,-5v-8a5,5,0,0,1,5,-5z"></path><g id="node_text60" fill="black"><text id="kity_text_271" text-rendering="inherit" font-size="12" dy=".8em" y="594.5" x="143.5">keywordMgr</text></g></g><g id="minder_node62"><g id="node_expander60" style="cursor: pointer;" display="none"><path id="kity_path_518" fill="white" stroke="gray" d="M233.5,626.5A6,6,0,1,1,221.5,626.5A6,6,0,1,1,233.5,626.5"></path><path id="kity_path_519" fill="none" stroke="gray"></path></g><path id="node_outline61" fill="none" stroke="none" d="M138.5,617.5h78a5,5,0,0,1,5,5v8a5,5,0,0,1,-5,5h-78a5,5,0,0,1,-5,-5v-8a5,5,0,0,1,5,-5z"></path><g id="node_text61" fill="black"><text id="kity_text_273" text-rendering="inherit" font-size="12" dy=".8em" y="620.5" x="138.5">passwordMgr</text></g></g><g id="minder_node59" opacity="1"><g id="node_expander61" style="cursor: pointer;"><path id="kity_path_521" fill="white" stroke="gray" d="M339.5,600.5A6,6,0,1,1,327.5,600.5A6,6,0,1,1,339.5,600.5"></path><path id="kity_path_522" fill="none" stroke="gray" d="M329,600.5L338,600.5"></path></g><path id="node_outline62" fill="none" stroke="none" d="M242.5,591.5h80a5,5,0,0,1,5,5v8a5,5,0,0,1,-5,5h-80a5,5,0,0,1,-5,-5v-8a5,5,0,0,1,5,-5z" stroke-width="3"></path><g id="node_text62" fill="black"><text id="kity_text_275" text-rendering="inherit" font-size="12" dy=".8em" y="594.5" x="242.5">JarvisAssistant</text></g></g><g id="minder_node58"><g id="node_expander56" style="cursor: pointer;" display="none"><path id="kity_path_506" fill="white" stroke="gray" d="M269.5,652.5A6,6,0,1,1,257.5,652.5A6,6,0,1,1,269.5,652.5"></path><path id="kity_path_507" fill="none" stroke="gray"></path></g><path id="node_outline57" fill="none" stroke="none" d="M240.5,643.5h12a5,5,0,0,1,5,5v8a5,5,0,0,1,-5,5h-12a5,5,0,0,1,-5,-5v-8a5,5,0,0,1,5,-5z"></path><g id="node_text57" fill="black"><text id="kity_text_265" text-rendering="inherit" font-size="12" dy=".8em" y="646.5" x="240.5">CI</text></g></g><g id="minder_node57" opacity="1"><g id="node_expander57" style="cursor: pointer;"><path id="kity_path_509" fill="white" stroke="gray" d="M339.5,652.5A6,6,0,1,1,327.5,652.5A6,6,0,1,1,339.5,652.5"></path><path id="kity_path_510" fill="none" stroke="gray" d="M329,652.5L338,652.5"></path></g><path id="node_outline58" fill="none" stroke="none" d="M278.5,643.5h44a5,5,0,0,1,5,5v8a5,5,0,0,1,-5,5h-44a5,5,0,0,1,-5,-5v-8a5,5,0,0,1,5,-5z" stroke-width="3"></path><g id="node_text58" fill="black"><text id="kity_text_267" text-rendering="inherit" font-size="12" dy=".8em" y="646.5" x="278.5">JarvisCI</text></g></g><g id="minder_node73"><g id="node_expander72" style="cursor: pointer;" display="none"><path id="kity_path_618" fill="white" stroke="gray" d="M339.5,736.5A6,6,0,1,1,327.5,736.5A6,6,0,1,1,339.5,736.5"></path><path id="kity_path_619" fill="none" stroke="gray"></path></g><path id="node_outline73" fill="none" stroke="none" d="M294.5,727.5h28a5,5,0,0,1,5,5v8a5,5,0,0,1,-5,5h-28a5,5,0,0,1,-5,-5v-8a5,5,0,0,1,5,-5z" stroke-width="3"></path><g id="node_text73" fill="black"><text id="kity_text_615" text-rendering="inherit" font-size="12" dy=".8em" y="730.5" x="294.5">Pixi.js</text></g></g><g id="minder_node74"><g id="node_expander73" style="cursor: pointer;" display="none"><path id="kity_path_626" fill="white" stroke="gray" d="M339.5,762.5A6,6,0,1,1,327.5,762.5A6,6,0,1,1,339.5,762.5"></path><path id="kity_path_627" fill="none" stroke="gray"></path></g><path id="node_outline74" fill="none" stroke="none" d="M251.5,753.5h71a5,5,0,0,1,5,5v8a5,5,0,0,1,-5,5h-71a5,5,0,0,1,-5,-5v-8a5,5,0,0,1,5,-5z" stroke-width="3"></path><g id="node_text74" fill="black"><text id="kity_text_623" text-rendering="inherit" font-size="12" dy=".8em" y="756.5" x="251.5">Tensorflow.js</text></g></g><g id="minder_node43"><g id="node_expander40" style="cursor: pointer;" display="none"><path id="kity_path_458" fill="white" stroke="gray" d="M151.5,349.5A6,6,0,1,1,139.5,349.5A6,6,0,1,1,151.5,349.5"></path><path id="kity_path_459" fill="none" stroke="gray"></path></g><path id="node_outline41" fill="none" stroke="none" d="M27.5,340.5h107a5,5,0,0,1,5,5v8a5,5,0,0,1,-5,5h-107a5,5,0,0,1,-5,-5v-8a5,5,0,0,1,5,-5z"></path><g id="node_text41" fill="black"><text id="kity_text_233" text-rendering="inherit" font-size="12" dy=".8em" y="343.5" x="27.5">jarvisViewerPlugins</text></g></g><g id="minder_node44"><g id="node_expander41" style="cursor: pointer;" display="none"><path id="kity_path_461" fill="white" stroke="gray" d="M154.5,374.5A6,6,0,1,1,142.5,374.5A6,6,0,1,1,154.5,374.5"></path><path id="kity_path_462" fill="none" stroke="gray"></path></g><path id="node_outline42" fill="none" stroke="none" d="M25.5,365.5h112a5,5,0,0,1,5,5v8a5,5,0,0,1,-5,5h-112a5,5,0,0,1,-5,-5v-8a5,5,0,0,1,5,-5z"></path><g id="node_text42" fill="black"><text id="kity_text_235" text-rendering="inherit" font-size="12" dy=".8em" y="368.5" x="25.5">graphRenderPlugin</text></g></g><g id="minder_node42"><g id="node_expander42" style="cursor: pointer;"><path id="kity_path_464" fill="white" stroke="gray" d="M253.5,361.5A6,6,0,1,1,241.5,361.5A6,6,0,1,1,253.5,361.5"></path><path id="kity_path_465" fill="none" stroke="gray" d="M243,361.5L252,361.5"></path></g><path id="node_outline43" fill="none" stroke="none" d="M163.5,352.5h73a5,5,0,0,1,5,5v8a5,5,0,0,1,-5,5h-73a5,5,0,0,1,-5,-5v-8a5,5,0,0,1,5,-5z"></path><g id="node_text43" fill="black"><text id="kity_text_237" text-rendering="inherit" font-size="12" dy=".8em" y="355.5" x="163.5">markdown-it</text></g></g><g id="minder_node45"><g id="node_expander43" style="cursor: pointer;" display="none"><path id="kity_path_467" fill="white" stroke="gray" d="M253.5,400.5A6,6,0,1,1,241.5,400.5A6,6,0,1,1,253.5,400.5"></path><path id="kity_path_468" fill="none" stroke="gray"></path></g><path id="node_outline44" fill="none" stroke="none" d="M185.5,391.5h51a5,5,0,0,1,5,5v8a5,5,0,0,1,-5,5h-51a5,5,0,0,1,-5,-5v-8a5,5,0,0,1,5,-5z"></path><g id="node_text44" fill="black"><text id="kity_text_239" text-rendering="inherit" font-size="12" dy=".8em" y="394.5" x="185.5">dataMgr</text></g></g><g id="minder_node41" opacity="1"><g id="node_expander44" style="cursor: pointer;"><path id="kity_path_470" fill="white" stroke="gray" d="M350.5,380.5A6,6,0,1,1,338.5,380.5A6,6,0,1,1,350.5,380.5"></path><path id="kity_path_471" fill="none" stroke="gray" d="M340,380.5L349,380.5"></path></g><path id="node_outline45" fill="none" stroke="none" d="M262.5,371.5h71a5,5,0,0,1,5,5v8a5,5,0,0,1,-5,5h-71a5,5,0,0,1,-5,-5v-8a5,5,0,0,1,5,-5z" stroke-width="3"></path><g id="node_text45" fill="black"><text id="kity_text_241" text-rendering="inherit" font-size="12" dy=".8em" y="374.5" x="262.5">JarvisViewer</text></g></g><g id="minder_node39"><g id="node_expander37" style="cursor: pointer;" display="none"><path id="kity_path_449" fill="white" stroke="gray" d="M759.5,915.5A6,6,0,1,1,747.5,915.5A6,6,0,1,1,759.5,915.5"></path><path id="kity_path_450" fill="none" stroke="gray"></path></g><path id="node_outline38" fill="none" stroke="none" d="M764.5,906.5h38a5,5,0,0,1,5,5v8a5,5,0,0,1,-5,5h-38a5,5,0,0,1,-5,-5v-8a5,5,0,0,1,5,-5z"></path><g id="node_text38" fill="black"><text id="kity_text_227" text-rendering="inherit" font-size="12" dy=".8em" y="909.5" x="764.5">CoolQ</text></g></g><g id="minder_node36"><g id="node_expander34" style="cursor: pointer;" display="none"><path id="kity_path_440" fill="white" stroke="gray" d="M752.5,842.5A6,6,0,1,1,740.5,842.5A6,6,0,1,1,752.5,842.5"></path><path id="kity_path_441" fill="none" stroke="gray"></path></g><path id="node_outline35" fill="none" stroke="none" d="M757.5,833.5h41a5,5,0,0,1,5,5v8a5,5,0,0,1,-5,5h-41a5,5,0,0,1,-5,-5v-8a5,5,0,0,1,5,-5z"></path><g id="node_text35" fill="black"><text id="kity_text_221" text-rendering="inherit" font-size="12" dy=".8em" y="836.5" x="757.5">Market</text></g></g><g id="minder_node37"><g id="node_expander35" style="cursor: pointer;" display="none"><path id="kity_path_443" fill="white" stroke="gray" d="M752.5,868.5A6,6,0,1,1,740.5,868.5A6,6,0,1,1,752.5,868.5"></path><path id="kity_path_444" fill="none" stroke="gray"></path></g><path id="node_outline36" fill="none" stroke="none" d="M757.5,859.5h46a5,5,0,0,1,5,5v8a5,5,0,0,1,-5,5h-46a5,5,0,0,1,-5,-5v-8a5,5,0,0,1,5,-5z"></path><g id="node_text36" fill="black"><text id="kity_text_223" text-rendering="inherit" font-size="12" dy=".8em" y="862.5" x="757.5">hubMgr</text></g></g><g id="minder_node13"><g id="node_expander11" style="cursor: pointer;" display="none"><path id="kity_path_371" fill="white" stroke="gray" d="M903.5,569.5A6,6,0,1,1,891.5,569.5A6,6,0,1,1,903.5,569.5"></path><path id="kity_path_372" fill="none" stroke="gray"></path></g><path id="node_outline12" fill="none" stroke="none" d="M908.5,560.5h74a5,5,0,0,1,5,5v8a5,5,0,0,1,-5,5h-74a5,5,0,0,1,-5,-5v-8a5,5,0,0,1,5,-5z"></path><g id="node_text12" fill="black"><text id="kity_text_175" text-rendering="inherit" font-size="12" dy=".8em" y="563.5" x="908.5">translateServ</text></g></g><g id="minder_node14"><g id="node_expander12" style="cursor: pointer;" display="none"><path id="kity_path_374" fill="white" stroke="gray" d="M903.5,595.5A6,6,0,1,1,891.5,595.5A6,6,0,1,1,903.5,595.5"></path><path id="kity_path_375" fill="none" stroke="gray"></path></g><path id="node_outline13" fill="none" stroke="none" d="M908.5,586.5h30a5,5,0,0,1,5,5v8a5,5,0,0,1,-5,5h-30a5,5,0,0,1,-5,-5v-8a5,5,0,0,1,5,-5z" stroke-width="3"></path><g id="node_text13" fill="black"><text id="kity_text_177" text-rendering="inherit" font-size="12" dy=".8em" y="589.5" x="908.5">news</text></g></g><g id="minder_node16"><g id="node_expander14" style="cursor: pointer;" display="none"><path id="kity_path_380" fill="white" stroke="gray" d="M903.5,621.5A6,6,0,1,1,891.5,621.5A6,6,0,1,1,903.5,621.5"></path><path id="kity_path_381" fill="none" stroke="gray"></path></g><path id="node_outline15" fill="none" stroke="none" d="M908.5,612.5h86a5,5,0,0,1,5,5v8a5,5,0,0,1,-5,5h-86a5,5,0,0,1,-5,-5v-8a5,5,0,0,1,5,-5z"></path><g id="node_text15" fill="black"><text id="kity_text_181" text-rendering="inherit" font-size="12" dy=".8em" y="615.5" x="908.5">confluenceBot</text></g></g><g id="minder_node17"><g id="node_expander15" style="cursor: pointer;" display="none"><path id="kity_path_383" fill="white" stroke="gray" d="M903.5,647.5A6,6,0,1,1,891.5,647.5A6,6,0,1,1,903.5,647.5"></path><path id="kity_path_384" fill="none" stroke="gray"></path></g><path id="node_outline16" fill="none" stroke="none" d="M908.5,638.5h52a5,5,0,0,1,5,5v8a5,5,0,0,1,-5,5h-52a5,5,0,0,1,-5,-5v-8a5,5,0,0,1,5,-5z"></path><g id="node_text16" fill="black"><text id="kity_text_183" text-rendering="inherit" font-size="12" dy=".8em" y="641.5" x="908.5">gitlabBot</text></g></g><g id="minder_node18"><g id="node_expander16" style="cursor: pointer;" display="none"><path id="kity_path_386" fill="white" stroke="gray" d="M903.5,673.5A6,6,0,1,1,891.5,673.5A6,6,0,1,1,903.5,673.5"></path><path id="kity_path_387" fill="none" stroke="gray"></path></g><path id="node_outline17" fill="none" stroke="none" d="M908.5,664.5h35a5,5,0,0,1,5,5v8a5,5,0,0,1,-5,5h-35a5,5,0,0,1,-5,-5v-8a5,5,0,0,1,5,-5z"></path><g id="node_text17" fill="black"><text id="kity_text_185" text-rendering="inherit" font-size="12" dy=".8em" y="667.5" x="908.5">jiraBot</text></g></g><g id="minder_node19"><g id="node_expander17" style="cursor: pointer;" display="none"><path id="kity_path_389" fill="white" stroke="gray" d="M903.5,699.5A6,6,0,1,1,891.5,699.5A6,6,0,1,1,903.5,699.5"></path><path id="kity_path_390" fill="none" stroke="gray"></path></g><path id="node_outline18" fill="none" stroke="none" d="M908.5,690.5h38a5,5,0,0,1,5,5v8a5,5,0,0,1,-5,5h-38a5,5,0,0,1,-5,-5v-8a5,5,0,0,1,5,-5z"></path><g id="node_text18" fill="black"><text id="kity_text_187" text-rendering="inherit" font-size="12" dy=".8em" y="693.5" x="908.5">OABot</text></g></g><g id="minder_node12" opacity="1"><g id="node_expander18" style="cursor: pointer;"><path id="kity_path_392" fill="white" stroke="gray" d="M800.5,634.5A6,6,0,1,1,788.5,634.5A6,6,0,1,1,800.5,634.5"></path><path id="kity_path_393" fill="none" stroke="gray" d="M790,634.5L799,634.5"></path></g><path id="node_outline19" fill="none" stroke="none" d="M805.5,625.5h77a5,5,0,0,1,5,5v8a5,5,0,0,1,-5,5h-77a5,5,0,0,1,-5,-5v-8a5,5,0,0,1,5,-5z" stroke-width="3"></path><g id="node_text19" fill="black"><text id="kity_text_189" text-rendering="inherit" font-size="12" dy=".8em" y="628.5" x="805.5">JarvisCrawler</text></g></g><g id="minder_node65"><g id="node_expander64" style="cursor: pointer;"><path id="kity_path_540" fill="white" stroke="gray" d="M704.5,634.5A6,6,0,1,1,692.5,634.5A6,6,0,1,1,704.5,634.5"></path><path id="kity_path_541" fill="none" stroke="gray" d="M694,634.5L703,634.5"></path></g><path id="node_outline65" fill="none" stroke="none" d="M709.5,625.5h70a5,5,0,0,1,5,5v8a5,5,0,0,1,-5,5h-70a5,5,0,0,1,-5,-5v-8a5,5,0,0,1,5,-5z" stroke-width="3"></path><g id="node_text65" fill="black"><text id="kity_text_537" text-rendering="inherit" font-size="12" dy=".8em" y="628.5" x="709.5">WebContorl</text></g></g><g id="minder_node68"><g id="node_expander67" style="cursor: pointer;" display="none"><path id="kity_path_564" fill="white" stroke="gray" d="M813.5,725.5A6,6,0,1,1,801.5,725.5A6,6,0,1,1,813.5,725.5"></path><path id="kity_path_565" fill="none" stroke="gray"></path></g><path id="node_outline68" fill="none" stroke="none" d="M818.5,716.5h54a5,5,0,0,1,5,5v8a5,5,0,0,1,-5,5h-54a5,5,0,0,1,-5,-5v-8a5,5,0,0,1,5,-5z" stroke-width="3"></path><g id="node_text68" fill="black"><text id="kity_text_561" text-rendering="inherit" font-size="12" dy=".8em" y="719.5" x="818.5">ADBCore</text></g></g><g id="minder_node66"><g id="node_expander65" style="cursor: pointer;"><path id="kity_path_548" fill="white" stroke="gray" d="M704.5,725.5A6,6,0,1,1,692.5,725.5A6,6,0,1,1,704.5,725.5"></path><path id="kity_path_549" fill="none" stroke="gray" d="M694,725.5L703,725.5"></path></g><path id="node_outline66" fill="none" stroke="none" d="M709.5,716.5h83a5,5,0,0,1,5,5v8a5,5,0,0,1,-5,5h-83a5,5,0,0,1,-5,-5v-8a5,5,0,0,1,5,-5z" stroke-width="3"></path><g id="node_text66" fill="black"><text id="kity_text_545" text-rendering="inherit" font-size="12" dy=".8em" y="719.5" x="709.5">MobileControl</text></g></g></g></g></svg>