<svg id="kity_svg_6" xmlns="http://www.w3.org/2000/svg" xmlns:xlink="http://www.w3.org/1999/xlink" version="1.1" width="810" height="934" style="background: rgb(251, 251, 251); visibility: visible;" viewBox="0 0 810 934"><defs id="kity_defs_7"><linearGradient id="kity_linearGradient_17" x1="0" y1="0" x2="0" y2="1"><stop id="kity_stop_18" offset="0" stop-color="rgb(255, 255, 255)"></stop><stop id="kity_stop_19" offset="1" stop-color="rgb(204, 204, 204)"></stop></linearGradient><marker id="kity_marker_2" orient="auto" refX="6" refY="0" viewBox="-7 -7 14 14" markerWidth="7" markerHeight="7" markerUnits="userSpaceOnUse"><path id="kity_path_3" fill="rgb(115, 161, 191)" stroke="none" d="M6,0A6,6,0,1,1,-6,0A6,6,0,1,1,6,0"></path></marker></defs><g id="kity_g_8"><g id="minder1" text-rendering="optimize-speed"><g id="minder_connect_group1"><path id="kity_path_31" fill="none" stroke="rgb(115, 161, 191)" stroke-width="1" d="M431.5,504.5A49,397,0,0,1,480.5,107.5"></path><path id="kity_path_33" fill="none" stroke="rgb(115, 161, 191)" stroke-width="1" d="M592.5,107.5C595.5,107.5,595.5,41.5,598.5,41.5L682.5,41.5"></path><path id="kity_path_35" fill="none" stroke="rgb(115, 161, 191)" stroke-width="1" d="M592.5,107.5C595.5,107.5,595.5,67.5,598.5,67.5L673.5,67.5"></path><path id="kity_path_37" fill="none" stroke="rgb(115, 161, 191)" stroke-width="1" d="M592.5,107.5C595.5,107.5,595.5,93.5,598.5,93.5L663.5,93.5"></path><path id="kity_path_39" fill="none" stroke="rgb(115, 161, 191)" stroke-width="1" d="M592.5,107.5C595.5,107.5,595.5,119.5,598.5,119.5L708.5,119.5"></path><path id="kity_path_41" fill="none" stroke="rgb(115, 161, 191)" stroke-width="1" d="M592.5,107.5C595.5,107.5,595.5,145.5,598.5,145.5L692.5,145.5"></path><path id="kity_path_43" fill="none" stroke="rgb(115, 161, 191)" stroke-width="1" d="M592.5,107.5C595.5,107.5,595.5,171.5,598.5,171.5L662.5,171.5"></path><path id="kity_path_45" fill="none" stroke="rgb(115, 161, 191)" stroke-width="1" d="M592.5,107.5C595.5,107.5,595.5,197.5,598.5,197.5L680.5,197.5"></path><path id="kity_path_47" fill="none" stroke="rgb(115, 161, 191)" stroke-width="1" d="M431.5,504.5A49,281,0,0,1,480.5,223.5"></path><path id="kity_path_49" fill="none" stroke="rgb(115, 161, 191)" stroke-width="1" d="M431.5,504.5A49,239,0,0,1,480.5,265.5"></path><path id="kity_path_51" fill="none" stroke="rgb(115, 161, 191)" stroke-width="1" d="M431.5,504.5A49,123,0,0,1,480.5,381.5"></path><path id="kity_path_53" fill="none" stroke="rgb(115, 161, 191)" stroke-width="1" d="M611.5,381.5C614.5,381.5,614.5,315.5,617.5,315.5L711.5,315.5"></path><path id="kity_path_55" fill="none" stroke="rgb(115, 161, 191)" stroke-width="1" d="M611.5,381.5C614.5,381.5,614.5,341.5,617.5,341.5L667.5,341.5"></path><path id="kity_path_57" fill="none" stroke="rgb(115, 161, 191)" stroke-width="1" d="M611.5,381.5C614.5,381.5,614.5,367.5,617.5,367.5L668.5,367.5"></path><path id="kity_path_59" fill="none" stroke="rgb(115, 161, 191)" stroke-width="1" d="M611.5,381.5C614.5,381.5,614.5,393.5,617.5,393.5L723.5,393.5"></path><path id="kity_path_61" fill="none" stroke="rgb(115, 161, 191)" stroke-width="1" d="M611.5,381.5C614.5,381.5,614.5,419.5,617.5,419.5L689.5,419.5"></path><path id="kity_path_63" fill="none" stroke="rgb(115, 161, 191)" stroke-width="1" d="M611.5,381.5C614.5,381.5,614.5,445.5,617.5,445.5L672.5,445.5"></path><path id="kity_path_65" fill="none" stroke="rgb(115, 161, 191)" stroke-width="1" d="M611.5,381.5C614.5,381.5,614.5,471.5,617.5,471.5L675.5,471.5"></path><path id="kity_path_67" fill="none" stroke="rgb(115, 161, 191)" stroke-width="1" d="M431.5,504.5A49,7,0,0,1,480.5,497.5"></path><path id="kity_path_69" fill="none" stroke="rgb(115, 161, 191)" stroke-width="1" d="M431.5,504.5A49,122,0,0,0,480.5,626.5"></path><path id="kity_path_71" fill="none" stroke="rgb(115, 161, 191)" stroke-width="1" d="M615.5,626.5C618.5,626.5,618.5,638.5,621.5,638.5L681.5,638.5"></path><path id="kity_path_73" fill="none" stroke="rgb(115, 161, 191)" stroke-width="1" d="M681.5,638.5C684.5,638.5,684.5,547.5,687.5,547.5L734.5,547.5"></path><path id="kity_path_75" fill="none" stroke="rgb(115, 161, 191)" stroke-width="1" d="M681.5,638.5C684.5,638.5,684.5,573.5,687.5,573.5L753.5,573.5"></path><path id="kity_path_77" fill="none" stroke="rgb(115, 161, 191)" stroke-width="1" d="M681.5,638.5C684.5,638.5,684.5,599.5,687.5,599.5L746.5,599.5"></path><path id="kity_path_79" fill="none" stroke="rgb(115, 161, 191)" stroke-width="1" d="M681.5,638.5C684.5,638.5,684.5,625.5,687.5,625.5L757.5,625.5"></path><path id="kity_path_81" fill="none" stroke="rgb(115, 161, 191)" stroke-width="1" d="M681.5,638.5C684.5,638.5,684.5,651.5,687.5,651.5L766.5,651.5"></path><path id="kity_path_83" fill="none" stroke="rgb(115, 161, 191)" stroke-width="1" d="M681.5,638.5C684.5,638.5,684.5,677.5,687.5,677.5L772.5,677.5"></path><path id="kity_path_85" fill="none" stroke="rgb(115, 161, 191)" stroke-width="1" d="M681.5,638.5C684.5,638.5,684.5,703.5,687.5,703.5L790.5,703.5"></path><path id="kity_path_87" fill="none" stroke="rgb(115, 161, 191)" stroke-width="1" d="M681.5,638.5C684.5,638.5,684.5,729.5,687.5,729.5L785.5,729.5"></path><path id="kity_path_89" fill="none" stroke="rgb(115, 161, 191)" stroke-width="1" d="M431.5,504.5A49,273,0,0,0,480.5,777.5"></path><path id="kity_path_91" fill="none" stroke="rgb(115, 161, 191)" stroke-width="1" d="M583.5,777.5C586.5,777.5,586.5,763.5,589.5,763.5L659.5,763.5"></path><path id="kity_path_93" fill="none" stroke="rgb(115, 161, 191)" stroke-width="1" d="M583.5,777.5C586.5,777.5,586.5,789.5,589.5,789.5L666.5,789.5"></path><path id="kity_path_95" fill="none" stroke="rgb(115, 161, 191)" stroke-width="1" d="M583.5,777.5C586.5,777.5,586.5,815.5,589.5,815.5L660.5,815.5"></path><path id="kity_path_97" fill="none" stroke="rgb(115, 161, 191)" stroke-width="1" d="M431.5,504.5A49,346,0,0,0,480.5,850.5"></path><path id="kity_path_99" fill="none" stroke="rgb(115, 161, 191)" stroke-width="1" d="M606.5,850.5C609.5,850.5,609.5,849.5,612.5,849.5L673.5,849.5"></path><path id="kity_path_101" fill="none" stroke="rgb(115, 161, 191)" stroke-width="1" d="M606.5,850.5C609.5,850.5,609.5,875.5,612.5,875.5L678.5,875.5"></path><path id="kity_path_103" fill="none" stroke="rgb(115, 161, 191)" stroke-width="1" d="M431.5,504.5A49,397,0,0,0,480.5,901.5"></path><path id="kity_path_105" fill="none" stroke="rgb(115, 161, 191)" stroke-width="1" d="M605.5,901.5C608.5,901.5,608.5,913.5,611.5,913.5L669.5,913.5"></path><path id="kity_path_107" fill="none" stroke="rgb(115, 161, 191)" stroke-width="1" d="M431.5,504.5A49,269,0,0,0,382.5,235.5"></path><path id="kity_path_109" fill="none" stroke="rgb(115, 161, 191)" stroke-width="1" d="M431.5,504.5A49,198,0,0,0,382.5,306.5"></path><path id="kity_path_111" fill="none" stroke="rgb(115, 161, 191)" stroke-width="1" d="M257.5,306.5C254.5,306.5,254.5,299.5,251.5,299.5L158.5,299.5"></path><path id="kity_path_113" fill="none" stroke="rgb(115, 161, 191)" stroke-width="1" d="M158.5,299.5C154,299.5,154,287.5,149.5,287.5L22.5,287.5"></path><path id="kity_path_115" fill="none" stroke="rgb(115, 161, 191)" stroke-width="1" d="M158.5,299.5C155.5,299.5,155.5,312.5,152.5,312.5L20.5,312.5"></path><path id="kity_path_117" fill="none" stroke="rgb(115, 161, 191)" stroke-width="1" d="M257.5,306.5C254.5,306.5,254.5,338.5,251.5,338.5L180.5,338.5"></path><path id="kity_path_119" fill="none" stroke="rgb(115, 161, 191)" stroke-width="1" d="M431.5,504.5A49,119,0,0,0,382.5,385.5"></path><path id="kity_path_121" fill="none" stroke="rgb(115, 161, 191)" stroke-width="1" d="M267.5,385.5C264.5,385.5,264.5,371.5,261.5,371.5L203.5,371.5"></path><path id="kity_path_123" fill="none" stroke="rgb(115, 161, 191)" stroke-width="1" d="M267.5,385.5C264.5,385.5,264.5,397.5,261.5,397.5L219.5,397.5"></path><path id="kity_path_125" fill="none" stroke="rgb(115, 161, 191)" stroke-width="1" d="M267.5,385.5C264.5,385.5,264.5,423.5,261.5,423.5L166.5,423.5"></path><path id="kity_path_127" fill="none" stroke="rgb(115, 161, 191)" stroke-width="1" d="M431.5,504.5A49,20,0,0,0,382.5,484.5"></path><path id="kity_path_129" fill="none" stroke="rgb(115, 161, 191)" stroke-width="1" d="M286.5,484.5C283.5,484.5,283.5,457.5,280.5,457.5L217.5,457.5"></path><path id="kity_path_131" fill="none" stroke="rgb(115, 161, 191)" stroke-width="1" d="M286.5,484.5C283.5,484.5,283.5,483.5,280.5,483.5L214.5,483.5"></path><path id="kity_path_133" fill="none" stroke="rgb(115, 161, 191)" stroke-width="1" d="M286.5,484.5C283.5,484.5,283.5,509.5,280.5,509.5L240.5,509.5"></path><path id="kity_path_135" fill="none" stroke="rgb(115, 161, 191)" stroke-width="1" d="M431.5,504.5A49,57,0,0,1,382.5,561.5"></path><path id="kity_path_137" fill="none" stroke="rgb(115, 161, 191)" stroke-width="1" d="M431.5,504.5A49,99,0,0,1,382.5,603.5"></path><path id="kity_path_139" fill="none" stroke="rgb(115, 161, 191)" stroke-width="1" d="M431.5,504.5A49,141,0,0,1,382.5,645.5"></path><path id="kity_path_141" fill="none" stroke="rgb(115, 161, 191)" stroke-width="1" d="M289.5,645.5C286.5,645.5,286.5,657.5,283.5,657.5L251.5,657.5"></path><path id="kity_path_143" fill="none" stroke="rgb(115, 161, 191)" stroke-width="1" d="M431.5,504.5A49,205,0,0,1,382.5,709.5"></path><path id="kity_path_145" fill="none" stroke="rgb(115, 161, 191)" stroke-width="1" d="M246.5,709.5C243.5,709.5,243.5,695.5,240.5,695.5L167.5,695.5"></path><path id="kity_path_147" fill="none" stroke="rgb(115, 161, 191)" stroke-width="1" d="M246.5,709.5C243.5,709.5,243.5,721.5,240.5,721.5L147.5,721.5"></path><path id="kity_path_149" fill="none" stroke="rgb(115, 161, 191)" stroke-width="1" d="M246.5,709.5C243.5,709.5,243.5,747.5,240.5,747.5L142.5,747.5"></path><path id="kity_path_151" fill="none" stroke="rgb(115, 161, 191)" stroke-width="1" d="M431.5,504.5A49,269,0,0,1,382.5,773.5"></path><path id="kity_path_519" fill="none" stroke="rgb(115, 161, 191)" stroke-width="1" d="M286.5,484.5C283.5,484.5,283.5,535.5,280.5,535.5L209.5,535.5"></path></g><g id="minder_node1"><path id="node_outline1" fill="rgb(115, 161, 191)" stroke="rgb(115, 161, 191)" d="M403.5,490.5h56a5,5,0,0,1,5,5v18a5,5,0,0,1,-5,5h-56a5,5,0,0,1,-5,-5v-18a5,5,0,0,1,5,-5z" stroke-width="3"></path><g id="node_text1" fill="white"><text id="kity_text_22" text-rendering="inherit" font-size="16" dy=".8em" y="496.5" x="410.5">Jarvis</text></g></g><g id="kity_g_12"><path id="kity_path_13" fill="none" stroke="none" d="M410.5,504.5h0v0h0z"></path></g><g id="kity_g_14"><path id="kity_path_15" fill="none" stroke="none" d="M410.5,504.5h0v0h0z"></path><path id="kity_path_16" fill="none" stroke="none"></path></g><g id="minder_node2"><g id="node_expander8" style="cursor: pointer;"><path id="kity_path_357" fill="white" stroke="gray" d="M481.5,107.5A6,6,0,1,1,469.5,107.5A6,6,0,1,1,481.5,107.5"></path><path id="kity_path_358" fill="none" stroke="gray" d="M471,107.5L480,107.5"></path></g><path id="node_outline9" fill="rgb(238, 243, 246)" stroke="rgb(115, 161, 191)" d="M485.5,94.5h104a3,3,0,0,1,3,3v20a3,3,0,0,1,-3,3h-104a3,3,0,0,1,-3,-3v-20a3,3,0,0,1,3,-3z" stroke-width="1"></path><g id="node_text9" fill="black"><text id="kity_text_167" text-rendering="inherit" font-size="14" dy=".8em" y="100.5" x="502.5">JarvisCore</text></g></g><g id="minder_node3"><g id="node_expander1" style="cursor: pointer;" display="none"><path id="kity_path_336" fill="white" stroke="gray" d="M608.5,29.5A6,6,0,1,1,596.5,29.5A6,6,0,1,1,608.5,29.5"></path><path id="kity_path_337" fill="none" stroke="gray"></path></g><path id="node_outline2" fill="none" stroke="none" d="M613.5,20.5h64a5,5,0,0,1,5,5v8a5,5,0,0,1,-5,5h-64a5,5,0,0,1,-5,-5v-8a5,5,0,0,1,5,-5z"></path><g id="node_text2" fill="black"><text id="kity_text_153" text-rendering="inherit" font-size="12" dy=".8em" y="23.5" x="613.5">JarvisNode</text></g></g><g id="minder_node4"><g id="node_expander2" style="cursor: pointer;" display="none"><path id="kity_path_339" fill="white" stroke="gray" d="M608.5,55.5A6,6,0,1,1,596.5,55.5A6,6,0,1,1,608.5,55.5"></path><path id="kity_path_340" fill="none" stroke="gray"></path></g><path id="node_outline3" fill="none" stroke="none" d="M613.5,46.5h55a5,5,0,0,1,5,5v8a5,5,0,0,1,-5,5h-55a5,5,0,0,1,-5,-5v-8a5,5,0,0,1,5,-5z"></path><g id="node_text3" fill="black"><text id="kity_text_155" text-rendering="inherit" font-size="12" dy=".8em" y="49.5" x="613.5">JarvisTask</text></g></g><g id="minder_node5"><g id="node_expander3" style="cursor: pointer;" display="none"><path id="kity_path_342" fill="white" stroke="gray" d="M608.5,81.5A6,6,0,1,1,596.5,81.5A6,6,0,1,1,608.5,81.5"></path><path id="kity_path_343" fill="none" stroke="gray"></path></g><path id="node_outline4" fill="none" stroke="none" d="M613.5,72.5h45a5,5,0,0,1,5,5v8a5,5,0,0,1,-5,5h-45a5,5,0,0,1,-5,-5v-8a5,5,0,0,1,5,-5z"></path><g id="node_text4" fill="black"><text id="kity_text_157" text-rendering="inherit" font-size="12" dy=".8em" y="75.5" x="613.5">CoreDB</text></g></g><g id="minder_node6"><g id="node_expander4" style="cursor: pointer;" display="none"><path id="kity_path_345" fill="white" stroke="gray" d="M608.5,107.5A6,6,0,1,1,596.5,107.5A6,6,0,1,1,608.5,107.5"></path><path id="kity_path_346" fill="none" stroke="gray"></path></g><path id="node_outline5" fill="none" stroke="none" d="M613.5,98.5h90a5,5,0,0,1,5,5v8a5,5,0,0,1,-5,5h-90a5,5,0,0,1,-5,-5v-8a5,5,0,0,1,5,-5z"></path><g id="node_text5" fill="black"><text id="kity_text_159" text-rendering="inherit" font-size="12" dy=".8em" y="101.5" x="613.5">JarvisFileSystem</text></g></g><g id="minder_node7"><g id="node_expander5" style="cursor: pointer;" display="none"><path id="kity_path_348" fill="white" stroke="gray" d="M608.5,133.5A6,6,0,1,1,596.5,133.5A6,6,0,1,1,608.5,133.5"></path><path id="kity_path_349" fill="none" stroke="gray"></path></g><path id="node_outline6" fill="none" stroke="none" d="M613.5,124.5h74a5,5,0,0,1,5,5v8a5,5,0,0,1,-5,5h-74a5,5,0,0,1,-5,-5v-8a5,5,0,0,1,5,-5z"></path><g id="node_text6" fill="black"><text id="kity_text_161" text-rendering="inherit" font-size="12" dy=".8em" y="127.5" x="613.5">JarvisControl</text></g></g><g id="minder_node8"><g id="node_expander6" style="cursor: pointer;" display="none"><path id="kity_path_351" fill="white" stroke="gray" d="M608.5,159.5A6,6,0,1,1,596.5,159.5A6,6,0,1,1,608.5,159.5"></path><path id="kity_path_352" fill="none" stroke="gray"></path></g><path id="node_outline7" fill="none" stroke="none" d="M613.5,150.5h44a5,5,0,0,1,5,5v8a5,5,0,0,1,-5,5h-44a5,5,0,0,1,-5,-5v-8a5,5,0,0,1,5,-5z"></path><g id="node_text7" fill="black"><text id="kity_text_163" text-rendering="inherit" font-size="12" dy=".8em" y="153.5" x="613.5">LogMgr</text></g></g><g id="minder_node9"><g id="node_expander7" style="cursor: pointer;" display="none"><path id="kity_path_354" fill="white" stroke="gray" d="M608.5,185.5A6,6,0,1,1,596.5,185.5A6,6,0,1,1,608.5,185.5"></path><path id="kity_path_355" fill="none" stroke="gray"></path></g><path id="node_outline8" fill="none" stroke="none" d="M613.5,176.5h62a5,5,0,0,1,5,5v8a5,5,0,0,1,-5,5h-62a5,5,0,0,1,-5,-5v-8a5,5,0,0,1,5,-5z"></path><g id="node_text8" fill="black"><text id="kity_text_165" text-rendering="inherit" font-size="12" dy=".8em" y="179.5" x="613.5">ConfigMgr</text></g></g><g id="minder_node10"><g id="node_expander9" style="cursor: pointer;" display="none"><path id="kity_path_360" fill="white" stroke="gray" d="M481.5,223.5A6,6,0,1,1,469.5,223.5A6,6,0,1,1,481.5,223.5"></path><path id="kity_path_361" fill="none" stroke="gray"></path></g><path id="node_outline10" fill="rgb(238, 243, 246)" stroke="rgb(115, 161, 191)" d="M485.5,210.5h87a3,3,0,0,1,3,3v20a3,3,0,0,1,-3,3h-87a3,3,0,0,1,-3,-3v-20a3,3,0,0,1,3,-3z" stroke-width="1"></path><g id="node_text10" fill="black"><text id="kity_text_169" text-rendering="inherit" font-size="14" dy=".8em" y="216.5" x="502.5">JarvisSH</text></g></g><g id="minder_node11"><g id="node_expander10" style="cursor: pointer;" display="none"><path id="kity_path_363" fill="white" stroke="gray" d="M481.5,265.5A6,6,0,1,1,469.5,265.5A6,6,0,1,1,481.5,265.5"></path><path id="kity_path_364" fill="none" stroke="gray"></path></g><path id="node_outline11" fill="rgb(238, 243, 246)" stroke="rgb(115, 161, 191)" d="M485.5,252.5h113a3,3,0,0,1,3,3v20a3,3,0,0,1,-3,3h-113a3,3,0,0,1,-3,-3v-20a3,3,0,0,1,3,-3z" stroke-width="1"></path><g id="node_text11" fill="black"><text id="kity_text_171" text-rendering="inherit" font-size="14" dy=".8em" y="258.5" x="502.5">DTDataServ</text></g></g><g id="minder_node12"><g id="node_expander18" style="cursor: pointer;"><path id="kity_path_387" fill="white" stroke="gray" d="M481.5,381.5A6,6,0,1,1,469.5,381.5A6,6,0,1,1,481.5,381.5"></path><path id="kity_path_388" fill="none" stroke="gray" d="M471,381.5L480,381.5"></path></g><path id="node_outline19" fill="rgb(238, 243, 246)" stroke="rgb(115, 161, 191)" d="M485.5,368.5h123a3,3,0,0,1,3,3v20a3,3,0,0,1,-3,3h-123a3,3,0,0,1,-3,-3v-20a3,3,0,0,1,3,-3z" stroke-width="1"></path><g id="node_text19" fill="black"><text id="kity_text_187" text-rendering="inherit" font-size="14" dy=".8em" y="374.5" x="502.5">JarvisCrawler</text></g></g><g id="minder_node13"><g id="node_expander11" style="cursor: pointer;" display="none"><path id="kity_path_366" fill="white" stroke="gray" d="M627.5,303.5A6,6,0,1,1,615.5,303.5A6,6,0,1,1,627.5,303.5"></path><path id="kity_path_367" fill="none" stroke="gray"></path></g><path id="node_outline12" fill="none" stroke="none" d="M632.5,294.5h74a5,5,0,0,1,5,5v8a5,5,0,0,1,-5,5h-74a5,5,0,0,1,-5,-5v-8a5,5,0,0,1,5,-5z"></path><g id="node_text12" fill="black"><text id="kity_text_173" text-rendering="inherit" font-size="12" dy=".8em" y="297.5" x="632.5">translateServ</text></g></g><g id="minder_node14"><g id="node_expander12" style="cursor: pointer;" display="none"><path id="kity_path_369" fill="white" stroke="gray" d="M627.5,329.5A6,6,0,1,1,615.5,329.5A6,6,0,1,1,627.5,329.5"></path><path id="kity_path_370" fill="none" stroke="gray"></path></g><path id="node_outline13" fill="none" stroke="none" d="M632.5,320.5h30a5,5,0,0,1,5,5v8a5,5,0,0,1,-5,5h-30a5,5,0,0,1,-5,-5v-8a5,5,0,0,1,5,-5z"></path><g id="node_text13" fill="black"><text id="kity_text_175" text-rendering="inherit" font-size="12" dy=".8em" y="323.5" x="632.5">news</text></g></g><g id="minder_node15"><g id="node_expander13" style="cursor: pointer;" display="none"><path id="kity_path_372" fill="white" stroke="gray" d="M627.5,355.5A6,6,0,1,1,615.5,355.5A6,6,0,1,1,627.5,355.5"></path><path id="kity_path_373" fill="none" stroke="gray"></path></g><path id="node_outline14" fill="none" stroke="none" d="M632.5,346.5h31a5,5,0,0,1,5,5v8a5,5,0,0,1,-5,5h-31a5,5,0,0,1,-5,-5v-8a5,5,0,0,1,5,-5z"></path><g id="node_text14" fill="black"><text id="kity_text_177" text-rendering="inherit" font-size="12" dy=".8em" y="349.5" x="632.5">dtBot</text></g></g><g id="minder_node16"><g id="node_expander14" style="cursor: pointer;" display="none"><path id="kity_path_375" fill="white" stroke="gray" d="M627.5,381.5A6,6,0,1,1,615.5,381.5A6,6,0,1,1,627.5,381.5"></path><path id="kity_path_376" fill="none" stroke="gray"></path></g><path id="node_outline15" fill="none" stroke="none" d="M632.5,372.5h86a5,5,0,0,1,5,5v8a5,5,0,0,1,-5,5h-86a5,5,0,0,1,-5,-5v-8a5,5,0,0,1,5,-5z"></path><g id="node_text15" fill="black"><text id="kity_text_179" text-rendering="inherit" font-size="12" dy=".8em" y="375.5" x="632.5">confluenceBot</text></g></g><g id="minder_node17"><g id="node_expander15" style="cursor: pointer;" display="none"><path id="kity_path_378" fill="white" stroke="gray" d="M627.5,407.5A6,6,0,1,1,615.5,407.5A6,6,0,1,1,627.5,407.5"></path><path id="kity_path_379" fill="none" stroke="gray"></path></g><path id="node_outline16" fill="none" stroke="none" d="M632.5,398.5h52a5,5,0,0,1,5,5v8a5,5,0,0,1,-5,5h-52a5,5,0,0,1,-5,-5v-8a5,5,0,0,1,5,-5z"></path><g id="node_text16" fill="black"><text id="kity_text_181" text-rendering="inherit" font-size="12" dy=".8em" y="401.5" x="632.5">gitlabBot</text></g></g><g id="minder_node18"><g id="node_expander16" style="cursor: pointer;" display="none"><path id="kity_path_381" fill="white" stroke="gray" d="M627.5,433.5A6,6,0,1,1,615.5,433.5A6,6,0,1,1,627.5,433.5"></path><path id="kity_path_382" fill="none" stroke="gray"></path></g><path id="node_outline17" fill="none" stroke="none" d="M632.5,424.5h35a5,5,0,0,1,5,5v8a5,5,0,0,1,-5,5h-35a5,5,0,0,1,-5,-5v-8a5,5,0,0,1,5,-5z"></path><g id="node_text17" fill="black"><text id="kity_text_183" text-rendering="inherit" font-size="12" dy=".8em" y="427.5" x="632.5">jiraBot</text></g></g><g id="minder_node19"><g id="node_expander17" style="cursor: pointer;" display="none"><path id="kity_path_384" fill="white" stroke="gray" d="M627.5,459.5A6,6,0,1,1,615.5,459.5A6,6,0,1,1,627.5,459.5"></path><path id="kity_path_385" fill="none" stroke="gray"></path></g><path id="node_outline18" fill="none" stroke="none" d="M632.5,450.5h38a5,5,0,0,1,5,5v8a5,5,0,0,1,-5,5h-38a5,5,0,0,1,-5,-5v-8a5,5,0,0,1,5,-5z"></path><g id="node_text18" fill="black"><text id="kity_text_185" text-rendering="inherit" font-size="12" dy=".8em" y="453.5" x="632.5">OABot</text></g></g><g id="minder_node20"><g id="node_expander19" style="cursor: pointer;" display="none"><path id="kity_path_390" fill="white" stroke="gray" d="M481.5,497.5A6,6,0,1,1,469.5,497.5A6,6,0,1,1,481.5,497.5"></path><path id="kity_path_391" fill="none" stroke="gray"></path></g><path id="node_outline20" fill="rgb(238, 243, 246)" stroke="rgb(115, 161, 191)" d="M485.5,484.5h119a3,3,0,0,1,3,3v20a3,3,0,0,1,-3,3h-119a3,3,0,0,1,-3,-3v-20a3,3,0,0,1,3,-3z" stroke-width="1"></path><g id="node_text20" fill="black"><text id="kity_text_189" text-rendering="inherit" font-size="14" dy=".8em" y="490.5" x="502.5">JarvisTeleBot</text></g></g><g id="minder_node21"><g id="node_expander29" style="cursor: pointer;"><path id="kity_path_420" fill="white" stroke="gray" d="M481.5,626.5A6,6,0,1,1,469.5,626.5A6,6,0,1,1,481.5,626.5"></path><path id="kity_path_421" fill="none" stroke="gray" d="M471,626.5L480,626.5"></path></g><path id="node_outline30" fill="rgb(238, 243, 246)" stroke="rgb(115, 161, 191)" d="M485.5,613.5h127a3,3,0,0,1,3,3v20a3,3,0,0,1,-3,3h-127a3,3,0,0,1,-3,-3v-20a3,3,0,0,1,3,-3z" stroke-width="1"></path><g id="node_text30" fill="black"><text id="kity_text_209" text-rendering="inherit" font-size="14" dy=".8em" y="619.5" x="502.5">JarvisChatBot</text></g></g><g id="minder_node22"><g id="node_expander28" style="cursor: pointer;"><path id="kity_path_417" fill="white" stroke="gray" d="M631.5,626.5A6,6,0,1,1,619.5,626.5A6,6,0,1,1,631.5,626.5"></path><path id="kity_path_418" fill="none" stroke="gray" d="M621,626.5L630,626.5"></path></g><path id="node_outline29" fill="none" stroke="none" d="M636.5,617.5h40a5,5,0,0,1,5,5v8a5,5,0,0,1,-5,5h-40a5,5,0,0,1,-5,-5v-8a5,5,0,0,1,5,-5z"></path><g id="node_text29" fill="black"><text id="kity_text_207" text-rendering="inherit" font-size="12" dy=".8em" y="620.5" x="636.5">plugins</text></g></g><g id="minder_node23"><g id="node_expander20" style="cursor: pointer;" display="none"><path id="kity_path_393" fill="white" stroke="gray" d="M697.5,535.5A6,6,0,1,1,685.5,535.5A6,6,0,1,1,697.5,535.5"></path><path id="kity_path_394" fill="none" stroke="gray"></path></g><path id="node_outline21" fill="none" stroke="none" d="M702.5,526.5h27a5,5,0,0,1,5,5v8a5,5,0,0,1,-5,5h-27a5,5,0,0,1,-5,-5v-8a5,5,0,0,1,5,-5z"></path><g id="node_text21" fill="black"><text id="kity_text_191" text-rendering="inherit" font-size="12" dy=".8em" y="529.5" x="702.5">cmd</text></g></g><g id="minder_node24"><g id="node_expander21" style="cursor: pointer;" display="none"><path id="kity_path_396" fill="white" stroke="gray" d="M697.5,561.5A6,6,0,1,1,685.5,561.5A6,6,0,1,1,697.5,561.5"></path><path id="kity_path_397" fill="none" stroke="gray"></path></g><path id="node_outline22" fill="none" stroke="none" d="M702.5,552.5h46a5,5,0,0,1,5,5v8a5,5,0,0,1,-5,5h-46a5,5,0,0,1,-5,-5v-8a5,5,0,0,1,5,-5z"></path><g id="node_text22" fill="black"><text id="kity_text_193" text-rendering="inherit" font-size="12" dy=".8em" y="555.5" x="702.5">userMgr</text></g></g><g id="minder_node25"><g id="node_expander22" style="cursor: pointer;" display="none"><path id="kity_path_399" fill="white" stroke="gray" d="M697.5,587.5A6,6,0,1,1,685.5,587.5A6,6,0,1,1,697.5,587.5"></path><path id="kity_path_400" fill="none" stroke="gray"></path></g><path id="node_outline23" fill="none" stroke="none" d="M702.5,578.5h39a5,5,0,0,1,5,5v8a5,5,0,0,1,-5,5h-39a5,5,0,0,1,-5,-5v-8a5,5,0,0,1,5,-5z"></path><g id="node_text23" fill="black"><text id="kity_text_195" text-rendering="inherit" font-size="12" dy=".8em" y="581.5" x="702.5">fileMgr</text></g></g><g id="minder_node26"><g id="node_expander23" style="cursor: pointer;" display="none"><path id="kity_path_402" fill="white" stroke="gray" d="M697.5,613.5A6,6,0,1,1,685.5,613.5A6,6,0,1,1,697.5,613.5"></path><path id="kity_path_403" fill="none" stroke="gray"></path></g><path id="node_outline24" fill="none" stroke="none" d="M702.5,604.5h50a5,5,0,0,1,5,5v8a5,5,0,0,1,-5,5h-50a5,5,0,0,1,-5,-5v-8a5,5,0,0,1,5,-5z"></path><g id="node_text24" fill="black"><text id="kity_text_197" text-rendering="inherit" font-size="12" dy=".8em" y="607.5" x="702.5">translate</text></g></g><g id="minder_node27"><g id="node_expander24" style="cursor: pointer;" display="none"><path id="kity_path_405" fill="white" stroke="gray" d="M697.5,639.5A6,6,0,1,1,685.5,639.5A6,6,0,1,1,697.5,639.5"></path><path id="kity_path_406" fill="none" stroke="gray"></path></g><path id="node_outline25" fill="none" stroke="none" d="M702.5,630.5h59a5,5,0,0,1,5,5v8a5,5,0,0,1,-5,5h-59a5,5,0,0,1,-5,-5v-8a5,5,0,0,1,5,-5z" stroke-width="3"></path><g id="node_text25" fill="black"><text id="kity_text_199" text-rendering="inherit" font-size="12" dy=".8em" y="633.5" x="702.5">rasaPlugin</text></g></g><g id="minder_node28"><g id="node_expander25" style="cursor: pointer;" display="none"><path id="kity_path_408" fill="white" stroke="gray" d="M697.5,665.5A6,6,0,1,1,685.5,665.5A6,6,0,1,1,697.5,665.5"></path><path id="kity_path_409" fill="none" stroke="gray"></path></g><path id="node_outline26" fill="none" stroke="none" d="M702.5,656.5h65a5,5,0,0,1,5,5v8a5,5,0,0,1,-5,5h-65a5,5,0,0,1,-5,-5v-8a5,5,0,0,1,5,-5z"></path><g id="node_text26" fill="black"><text id="kity_text_201" text-rendering="inherit" font-size="12" dy=".8em" y="659.5" x="702.5">nodeStatus</text></g></g><g id="minder_node29"><g id="node_expander26" style="cursor: pointer;" display="none"><path id="kity_path_411" fill="white" stroke="gray" d="M697.5,691.5A6,6,0,1,1,685.5,691.5A6,6,0,1,1,697.5,691.5"></path><path id="kity_path_412" fill="none" stroke="gray"></path></g><path id="node_outline27" fill="none" stroke="none" d="M702.5,682.5h83a5,5,0,0,1,5,5v8a5,5,0,0,1,-5,5h-83a5,5,0,0,1,-5,-5v-8a5,5,0,0,1,5,-5z"></path><g id="node_text27" fill="black"><text id="kity_text_203" text-rendering="inherit" font-size="12" dy=".8em" y="685.5" x="702.5">assistantPlugin</text></g></g><g id="minder_node30"><g id="node_expander27" style="cursor: pointer;" display="none"><path id="kity_path_414" fill="white" stroke="gray" d="M697.5,717.5A6,6,0,1,1,685.5,717.5A6,6,0,1,1,697.5,717.5"></path><path id="kity_path_415" fill="none" stroke="gray"></path></g><path id="node_outline28" fill="none" stroke="none" d="M702.5,708.5h78a5,5,0,0,1,5,5v8a5,5,0,0,1,-5,5h-78a5,5,0,0,1,-5,-5v-8a5,5,0,0,1,5,-5z"></path><g id="node_text28" fill="black"><text id="kity_text_205" text-rendering="inherit" font-size="12" dy=".8em" y="711.5" x="702.5">crawlerPlugin</text></g></g><g id="minder_node31"><g id="node_expander33" style="cursor: pointer;"><path id="kity_path_432" fill="white" stroke="gray" d="M481.5,777.5A6,6,0,1,1,469.5,777.5A6,6,0,1,1,481.5,777.5"></path><path id="kity_path_433" fill="none" stroke="gray" d="M471,777.5L480,777.5"></path></g><path id="node_outline34" fill="rgb(238, 243, 246)" stroke="rgb(115, 161, 191)" d="M485.5,764.5h95a3,3,0,0,1,3,3v20a3,3,0,0,1,-3,3h-95a3,3,0,0,1,-3,-3v-20a3,3,0,0,1,3,-3z" stroke-width="1"></path><g id="node_text34" fill="black"><text id="kity_text_217" text-rendering="inherit" font-size="14" dy=".8em" y="770.5" x="502.5">RasaServ</text></g></g><g id="minder_node32"><g id="node_expander30" style="cursor: pointer;" display="none"><path id="kity_path_423" fill="white" stroke="gray" d="M599.5,751.5A6,6,0,1,1,587.5,751.5A6,6,0,1,1,599.5,751.5"></path><path id="kity_path_424" fill="none" stroke="gray"></path></g><path id="node_outline31" fill="none" stroke="none" d="M604.5,742.5h50a5,5,0,0,1,5,5v8a5,5,0,0,1,-5,5h-50a5,5,0,0,1,-5,-5v-8a5,5,0,0,1,5,-5z"></path><g id="node_text31" fill="black"><text id="kity_text_211" text-rendering="inherit" font-size="12" dy=".8em" y="745.5" x="604.5">BERTServ</text></g></g><g id="minder_node33"><g id="node_expander31" style="cursor: pointer;" display="none"><path id="kity_path_426" fill="white" stroke="gray" d="M599.5,777.5A6,6,0,1,1,587.5,777.5A6,6,0,1,1,599.5,777.5"></path><path id="kity_path_427" fill="none" stroke="gray"></path></g><path id="node_outline32" fill="none" stroke="none" d="M604.5,768.5h57a5,5,0,0,1,5,5v8a5,5,0,0,1,-5,5h-57a5,5,0,0,1,-5,-5v-8a5,5,0,0,1,5,-5z"></path><g id="node_text32" fill="black"><text id="kity_text_213" text-rendering="inherit" font-size="12" dy=".8em" y="771.5" x="604.5">RasaCore</text></g></g><g id="minder_node34"><g id="node_expander32" style="cursor: pointer;" display="none"><path id="kity_path_429" fill="white" stroke="gray" d="M599.5,803.5A6,6,0,1,1,587.5,803.5A6,6,0,1,1,599.5,803.5"></path><path id="kity_path_430" fill="none" stroke="gray"></path></g><path id="node_outline33" fill="none" stroke="none" d="M604.5,794.5h51a5,5,0,0,1,5,5v8a5,5,0,0,1,-5,5h-51a5,5,0,0,1,-5,-5v-8a5,5,0,0,1,5,-5z"></path><g id="node_text33" fill="black"><text id="kity_text_215" text-rendering="inherit" font-size="12" dy=".8em" y="797.5" x="604.5">RasaNLU</text></g></g><g id="minder_node35"><g id="node_expander36" style="cursor: pointer;"><path id="kity_path_441" fill="white" stroke="gray" d="M481.5,850.5A6,6,0,1,1,469.5,850.5A6,6,0,1,1,481.5,850.5"></path><path id="kity_path_442" fill="none" stroke="gray" d="M471,850.5L480,850.5"></path></g><path id="node_outline37" fill="rgb(238, 243, 246)" stroke="rgb(115, 161, 191)" d="M485.5,837.5h118a3,3,0,0,1,3,3v20a3,3,0,0,1,-3,3h-118a3,3,0,0,1,-3,-3v-20a3,3,0,0,1,3,-3z" stroke-width="1"></path><g id="node_text37" fill="black"><text id="kity_text_223" text-rendering="inherit" font-size="14" dy=".8em" y="843.5" x="502.5">JarvisMarket</text></g></g><g id="minder_node36"><g id="node_expander34" style="cursor: pointer;" display="none"><path id="kity_path_435" fill="white" stroke="gray" d="M622.5,837.5A6,6,0,1,1,610.5,837.5A6,6,0,1,1,622.5,837.5"></path><path id="kity_path_436" fill="none" stroke="gray"></path></g><path id="node_outline35" fill="none" stroke="none" d="M627.5,828.5h41a5,5,0,0,1,5,5v8a5,5,0,0,1,-5,5h-41a5,5,0,0,1,-5,-5v-8a5,5,0,0,1,5,-5z"></path><g id="node_text35" fill="black"><text id="kity_text_219" text-rendering="inherit" font-size="12" dy=".8em" y="831.5" x="627.5">Market</text></g></g><g id="minder_node37"><g id="node_expander35" style="cursor: pointer;" display="none"><path id="kity_path_438" fill="white" stroke="gray" d="M622.5,863.5A6,6,0,1,1,610.5,863.5A6,6,0,1,1,622.5,863.5"></path><path id="kity_path_439" fill="none" stroke="gray"></path></g><path id="node_outline36" fill="none" stroke="none" d="M627.5,854.5h46a5,5,0,0,1,5,5v8a5,5,0,0,1,-5,5h-46a5,5,0,0,1,-5,-5v-8a5,5,0,0,1,5,-5z"></path><g id="node_text36" fill="black"><text id="kity_text_221" text-rendering="inherit" font-size="12" dy=".8em" y="857.5" x="627.5">hubMgr</text></g></g><g id="minder_node38"><g id="node_expander38" style="cursor: pointer;"><path id="kity_path_447" fill="white" stroke="gray" d="M481.5,901.5A6,6,0,1,1,469.5,901.5A6,6,0,1,1,481.5,901.5"></path><path id="kity_path_448" fill="none" stroke="gray" d="M471,901.5L480,901.5"></path></g><path id="node_outline39" fill="rgb(238, 243, 246)" stroke="rgb(115, 161, 191)" d="M485.5,888.5h117a3,3,0,0,1,3,3v20a3,3,0,0,1,-3,3h-117a3,3,0,0,1,-3,-3v-20a3,3,0,0,1,3,-3z" stroke-width="1"></path><g id="node_text39" fill="black"><text id="kity_text_227" text-rendering="inherit" font-size="14" dy=".8em" y="894.5" x="502.5">JarvisQQBot</text></g></g><g id="minder_node39"><g id="node_expander37" style="cursor: pointer;" display="none"><path id="kity_path_444" fill="white" stroke="gray" d="M621.5,901.5A6,6,0,1,1,609.5,901.5A6,6,0,1,1,621.5,901.5"></path><path id="kity_path_445" fill="none" stroke="gray"></path></g><path id="node_outline38" fill="none" stroke="none" d="M626.5,892.5h38a5,5,0,0,1,5,5v8a5,5,0,0,1,-5,5h-38a5,5,0,0,1,-5,-5v-8a5,5,0,0,1,5,-5z"></path><g id="node_text38" fill="black"><text id="kity_text_225" text-rendering="inherit" font-size="12" dy=".8em" y="895.5" x="626.5">CoolQ</text></g></g><g id="minder_node40"><g id="node_expander39" style="cursor: pointer;" display="none"><path id="kity_path_450" fill="white" stroke="gray" d="M393.5,235.5A6,6,0,1,1,381.5,235.5A6,6,0,1,1,393.5,235.5"></path><path id="kity_path_451" fill="none" stroke="gray"></path></g><path id="node_outline40" fill="rgb(238, 243, 246)" stroke="rgb(115, 161, 191)" d="M228.5,222.5h149a3,3,0,0,1,3,3v20a3,3,0,0,1,-3,3h-149a3,3,0,0,1,-3,-3v-20a3,3,0,0,1,3,-3z" stroke-width="1"></path><g id="node_text40" fill="black"><text id="kity_text_229" text-rendering="inherit" font-size="14" dy=".8em" y="228.5" x="245.5">JarvisWeChatBot</text></g></g><g id="minder_node41"><g id="node_expander44" style="cursor: pointer;"><path id="kity_path_465" fill="white" stroke="gray" d="M393.5,306.5A6,6,0,1,1,381.5,306.5A6,6,0,1,1,393.5,306.5"></path><path id="kity_path_466" fill="none" stroke="gray" d="M383,306.5L392,306.5"></path></g><path id="node_outline45" fill="rgb(238, 243, 246)" stroke="rgb(115, 161, 191)" d="M260.5,293.5h117a3,3,0,0,1,3,3v20a3,3,0,0,1,-3,3h-117a3,3,0,0,1,-3,-3v-20a3,3,0,0,1,3,-3z" stroke-width="1"></path><g id="node_text45" fill="black"><text id="kity_text_239" text-rendering="inherit" font-size="14" dy=".8em" y="299.5" x="277.5">JarvisViewer</text></g></g><g id="minder_node42"><g id="node_expander42" style="cursor: pointer;"><path id="kity_path_459" fill="white" stroke="gray" d="M253.5,287.5A6,6,0,1,1,241.5,287.5A6,6,0,1,1,253.5,287.5"></path><path id="kity_path_460" fill="none" stroke="gray" d="M243,287.5L252,287.5"></path></g><path id="node_outline43" fill="none" stroke="none" d="M163.5,278.5h73a5,5,0,0,1,5,5v8a5,5,0,0,1,-5,5h-73a5,5,0,0,1,-5,-5v-8a5,5,0,0,1,5,-5z"></path><g id="node_text43" fill="black"><text id="kity_text_235" text-rendering="inherit" font-size="12" dy=".8em" y="281.5" x="163.5">markdown-it</text></g></g><g id="minder_node43"><g id="node_expander40" style="cursor: pointer;" display="none"><path id="kity_path_453" fill="white" stroke="gray" d="M151.5,275.5A6,6,0,1,1,139.5,275.5A6,6,0,1,1,151.5,275.5"></path><path id="kity_path_454" fill="none" stroke="gray"></path></g><path id="node_outline41" fill="none" stroke="none" d="M27.5,266.5h107a5,5,0,0,1,5,5v8a5,5,0,0,1,-5,5h-107a5,5,0,0,1,-5,-5v-8a5,5,0,0,1,5,-5z"></path><g id="node_text41" fill="black"><text id="kity_text_231" text-rendering="inherit" font-size="12" dy=".8em" y="269.5" x="27.5">jarvisViewerPlugins</text></g></g><g id="minder_node44"><g id="node_expander41" style="cursor: pointer;" display="none"><path id="kity_path_456" fill="white" stroke="gray" d="M154.5,300.5A6,6,0,1,1,142.5,300.5A6,6,0,1,1,154.5,300.5"></path><path id="kity_path_457" fill="none" stroke="gray"></path></g><path id="node_outline42" fill="none" stroke="none" d="M25.5,291.5h112a5,5,0,0,1,5,5v8a5,5,0,0,1,-5,5h-112a5,5,0,0,1,-5,-5v-8a5,5,0,0,1,5,-5z"></path><g id="node_text42" fill="black"><text id="kity_text_233" text-rendering="inherit" font-size="12" dy=".8em" y="294.5" x="25.5">graphRenderPlugin</text></g></g><g id="minder_node45"><g id="node_expander43" style="cursor: pointer;" display="none"><path id="kity_path_462" fill="white" stroke="gray" d="M253.5,326.5A6,6,0,1,1,241.5,326.5A6,6,0,1,1,253.5,326.5"></path><path id="kity_path_463" fill="none" stroke="gray"></path></g><path id="node_outline44" fill="none" stroke="none" d="M185.5,317.5h51a5,5,0,0,1,5,5v8a5,5,0,0,1,-5,5h-51a5,5,0,0,1,-5,-5v-8a5,5,0,0,1,5,-5z"></path><g id="node_text44" fill="black"><text id="kity_text_237" text-rendering="inherit" font-size="12" dy=".8em" y="320.5" x="185.5">dataMgr</text></g></g><g id="minder_node46"><g id="node_expander48" style="cursor: pointer;"><path id="kity_path_477" fill="white" stroke="gray" d="M393.5,385.5A6,6,0,1,1,381.5,385.5A6,6,0,1,1,393.5,385.5"></path><path id="kity_path_478" fill="none" stroke="gray" d="M383,385.5L392,385.5"></path></g><path id="node_outline49" fill="rgb(238, 243, 246)" stroke="rgb(115, 161, 191)" d="M270.5,372.5h107a3,3,0,0,1,3,3v20a3,3,0,0,1,-3,3h-107a3,3,0,0,1,-3,-3v-20a3,3,0,0,1,3,-3z" stroke-width="1"></path><g id="node_text49" fill="black"><text id="kity_text_247" text-rendering="inherit" font-size="14" dy=".8em" y="378.5" x="287.5">JarvisNews</text></g></g><g id="minder_node47"><g id="node_expander45" style="cursor: pointer;" display="none"><path id="kity_path_468" fill="white" stroke="gray" d="M263.5,359.5A6,6,0,1,1,251.5,359.5A6,6,0,1,1,263.5,359.5"></path><path id="kity_path_469" fill="none" stroke="gray"></path></g><path id="node_outline46" fill="none" stroke="none" d="M208.5,350.5h38a5,5,0,0,1,5,5v8a5,5,0,0,1,-5,5h-38a5,5,0,0,1,-5,-5v-8a5,5,0,0,1,5,-5z"></path><g id="node_text46" fill="black"><text id="kity_text_241" text-rendering="inherit" font-size="12" dy=".8em" y="353.5" x="208.5">render</text></g></g><g id="minder_node48"><g id="node_expander46" style="cursor: pointer;" display="none"><path id="kity_path_471" fill="white" stroke="gray" d="M263.5,385.5A6,6,0,1,1,251.5,385.5A6,6,0,1,1,263.5,385.5"></path><path id="kity_path_472" fill="none" stroke="gray"></path></g><path id="node_outline47" fill="none" stroke="none" d="M224.5,376.5h22a5,5,0,0,1,5,5v8a5,5,0,0,1,-5,5h-22a5,5,0,0,1,-5,-5v-8a5,5,0,0,1,5,-5z"></path><g id="node_text47" fill="black"><text id="kity_text_243" text-rendering="inherit" font-size="12" dy=".8em" y="379.5" x="224.5">NLP</text></g></g><g id="minder_node49"><g id="node_expander47" style="cursor: pointer;" display="none"><path id="kity_path_474" fill="white" stroke="gray" d="M263.5,411.5A6,6,0,1,1,251.5,411.5A6,6,0,1,1,263.5,411.5"></path><path id="kity_path_475" fill="none" stroke="gray"></path></g><path id="node_outline48" fill="none" stroke="none" d="M171.5,402.5h75a5,5,0,0,1,5,5v8a5,5,0,0,1,-5,5h-75a5,5,0,0,1,-5,-5v-8a5,5,0,0,1,5,-5z"></path><g id="node_text48" fill="black"><text id="kity_text_245" text-rendering="inherit" font-size="12" dy=".8em" y="405.5" x="171.5">Elasticsearch</text></g></g><g id="minder_node50"><g id="node_expander52" style="cursor: pointer;"><path id="kity_path_489" fill="white" stroke="gray" d="M393.5,484.5A6,6,0,1,1,381.5,484.5A6,6,0,1,1,393.5,484.5"></path><path id="kity_path_490" fill="none" stroke="gray" d="M383,484.5L392,484.5"></path></g><path id="node_outline53" fill="rgb(238, 243, 246)" stroke="rgb(115, 161, 191)" d="M289.5,471.5h88a3,3,0,0,1,3,3v20a3,3,0,0,1,-3,3h-88a3,3,0,0,1,-3,-3v-20a3,3,0,0,1,3,-3z" stroke-width="1"></path><g id="node_text53" fill="black"><text id="kity_text_255" text-rendering="inherit" font-size="14" dy=".8em" y="477.5" x="306.5">AnkaDB</text></g></g><g id="minder_node51"><g id="node_expander49" style="cursor: pointer;" display="none"><path id="kity_path_480" fill="white" stroke="gray" d="M282.5,445.5A6,6,0,1,1,270.5,445.5A6,6,0,1,1,282.5,445.5"></path><path id="kity_path_481" fill="none" stroke="gray"></path></g><path id="node_outline50" fill="none" stroke="none" d="M222.5,436.5h43a5,5,0,0,1,5,5v8a5,5,0,0,1,-5,5h-43a5,5,0,0,1,-5,-5v-8a5,5,0,0,1,5,-5z"></path><g id="node_text50" fill="black"><text id="kity_text_249" text-rendering="inherit" font-size="12" dy=".8em" y="439.5" x="222.5">leveldb</text></g></g><g id="minder_node52"><g id="node_expander50" style="cursor: pointer;" display="none"><path id="kity_path_483" fill="white" stroke="gray" d="M282.5,471.5A6,6,0,1,1,270.5,471.5A6,6,0,1,1,282.5,471.5"></path><path id="kity_path_484" fill="none" stroke="gray"></path></g><path id="node_outline51" fill="none" stroke="none" d="M219.5,462.5h46a5,5,0,0,1,5,5v8a5,5,0,0,1,-5,5h-46a5,5,0,0,1,-5,-5v-8a5,5,0,0,1,5,-5z"></path><g id="node_text51" fill="black"><text id="kity_text_251" text-rendering="inherit" font-size="12" dy=".8em" y="465.5" x="219.5">rocksdb</text></g></g><g id="minder_node53"><g id="node_expander51" style="cursor: pointer;" display="none"><path id="kity_path_486" fill="white" stroke="gray" d="M282.5,497.5A6,6,0,1,1,270.5,497.5A6,6,0,1,1,282.5,497.5"></path><path id="kity_path_487" fill="none" stroke="gray"></path></g><path id="node_outline52" fill="none" stroke="none" d="M245.5,488.5h20a5,5,0,0,1,5,5v8a5,5,0,0,1,-5,5h-20a5,5,0,0,1,-5,-5v-8a5,5,0,0,1,5,-5z"></path><g id="node_text52" fill="black"><text id="kity_text_253" text-rendering="inherit" font-size="12" dy=".8em" y="491.5" x="245.5">raft</text></g></g><g id="minder_node54"><g id="node_expander53" style="cursor: pointer;" display="none"><path id="kity_path_492" fill="white" stroke="gray" d="M393.5,561.5A6,6,0,1,1,381.5,561.5A6,6,0,1,1,393.5,561.5"></path><path id="kity_path_493" fill="none" stroke="gray"></path></g><path id="node_outline54" fill="rgb(238, 243, 246)" stroke="rgb(115, 161, 191)" d="M280.5,548.5h97a3,3,0,0,1,3,3v20a3,3,0,0,1,-3,3h-97a3,3,0,0,1,-3,-3v-20a3,3,0,0,1,3,-3z" stroke-width="1"></path><g id="node_text54" fill="black"><text id="kity_text_257" text-rendering="inherit" font-size="14" dy=".8em" y="554.5" x="297.5">ADBCore</text></g></g><g id="minder_node55"><g id="node_expander54" style="cursor: pointer;" display="none"><path id="kity_path_495" fill="white" stroke="gray" d="M393.5,603.5A6,6,0,1,1,381.5,603.5A6,6,0,1,1,393.5,603.5"></path><path id="kity_path_496" fill="none" stroke="gray"></path></g><path id="node_outline55" fill="rgb(238, 243, 246)" stroke="rgb(115, 161, 191)" d="M255.5,590.5h122a3,3,0,0,1,3,3v20a3,3,0,0,1,-3,3h-122a3,3,0,0,1,-3,-3v-20a3,3,0,0,1,3,-3z" stroke-width="1"></path><g id="node_text55" fill="black"><text id="kity_text_259" text-rendering="inherit" font-size="14" dy=".8em" y="596.5" x="272.5">JarvisFSNode</text></g></g><g id="minder_node56"><g id="node_expander56" style="cursor: pointer;"><path id="kity_path_501" fill="white" stroke="gray" d="M393.5,645.5A6,6,0,1,1,381.5,645.5A6,6,0,1,1,393.5,645.5"></path><path id="kity_path_502" fill="none" stroke="gray" d="M383,645.5L392,645.5"></path></g><path id="node_outline57" fill="rgb(238, 243, 246)" stroke="rgb(115, 161, 191)" d="M292.5,632.5h85a3,3,0,0,1,3,3v20a3,3,0,0,1,-3,3h-85a3,3,0,0,1,-3,-3v-20a3,3,0,0,1,3,-3z" stroke-width="1"></path><g id="node_text57" fill="black"><text id="kity_text_263" text-rendering="inherit" font-size="14" dy=".8em" y="638.5" x="309.5">JarvisCI</text></g></g><g id="minder_node57"><g id="node_expander55" style="cursor: pointer;" display="none"><path id="kity_path_498" fill="white" stroke="gray" d="M285.5,645.5A6,6,0,1,1,273.5,645.5A6,6,0,1,1,285.5,645.5"></path><path id="kity_path_499" fill="none" stroke="gray"></path></g><path id="node_outline56" fill="none" stroke="none" d="M256.5,636.5h12a5,5,0,0,1,5,5v8a5,5,0,0,1,-5,5h-12a5,5,0,0,1,-5,-5v-8a5,5,0,0,1,5,-5z"></path><g id="node_text56" fill="black"><text id="kity_text_261" text-rendering="inherit" font-size="12" dy=".8em" y="639.5" x="256.5">CI</text></g></g><g id="minder_node58"><g id="node_expander60" style="cursor: pointer;"><path id="kity_path_513" fill="white" stroke="gray" d="M393.5,709.5A6,6,0,1,1,381.5,709.5A6,6,0,1,1,393.5,709.5"></path><path id="kity_path_514" fill="none" stroke="gray" d="M383,709.5L392,709.5"></path></g><path id="node_outline61" fill="rgb(238, 243, 246)" stroke="rgb(115, 161, 191)" d="M249.5,696.5h128a3,3,0,0,1,3,3v20a3,3,0,0,1,-3,3h-128a3,3,0,0,1,-3,-3v-20a3,3,0,0,1,3,-3z" stroke-width="1"></path><g id="node_text61" fill="black"><text id="kity_text_271" text-rendering="inherit" font-size="14" dy=".8em" y="702.5" x="266.5">JarvisAssistant</text></g></g><g id="minder_node59"><g id="node_expander57" style="cursor: pointer;" display="none"><path id="kity_path_504" fill="white" stroke="gray" d="M242.5,683.5A6,6,0,1,1,230.5,683.5A6,6,0,1,1,242.5,683.5"></path><path id="kity_path_505" fill="none" stroke="gray"></path></g><path id="node_outline58" fill="none" stroke="none" d="M172.5,674.5h53a5,5,0,0,1,5,5v8a5,5,0,0,1,-5,5h-53a5,5,0,0,1,-5,-5v-8a5,5,0,0,1,5,-5z"></path><g id="node_text58" fill="black"><text id="kity_text_265" text-rendering="inherit" font-size="12" dy=".8em" y="677.5" x="172.5">userData</text></g></g><g id="minder_node60"><g id="node_expander58" style="cursor: pointer;" display="none"><path id="kity_path_507" fill="white" stroke="gray" d="M242.5,709.5A6,6,0,1,1,230.5,709.5A6,6,0,1,1,242.5,709.5"></path><path id="kity_path_508" fill="none" stroke="gray"></path></g><path id="node_outline59" fill="none" stroke="none" d="M152.5,700.5h73a5,5,0,0,1,5,5v8a5,5,0,0,1,-5,5h-73a5,5,0,0,1,-5,-5v-8a5,5,0,0,1,5,-5z"></path><g id="node_text59" fill="black"><text id="kity_text_267" text-rendering="inherit" font-size="12" dy=".8em" y="703.5" x="152.5">keywordMgr</text></g></g><g id="minder_node61"><g id="node_expander59" style="cursor: pointer;" display="none"><path id="kity_path_510" fill="white" stroke="gray" d="M242.5,735.5A6,6,0,1,1,230.5,735.5A6,6,0,1,1,242.5,735.5"></path><path id="kity_path_511" fill="none" stroke="gray"></path></g><path id="node_outline60" fill="none" stroke="none" d="M147.5,726.5h78a5,5,0,0,1,5,5v8a5,5,0,0,1,-5,5h-78a5,5,0,0,1,-5,-5v-8a5,5,0,0,1,5,-5z"></path><g id="node_text60" fill="black"><text id="kity_text_269" text-rendering="inherit" font-size="12" dy=".8em" y="729.5" x="147.5">passwordMgr</text></g></g><g id="minder_node62"><g id="node_expander61" style="cursor: pointer;" display="none"><path id="kity_path_516" fill="white" stroke="gray" d="M393.5,773.5A6,6,0,1,1,381.5,773.5A6,6,0,1,1,393.5,773.5"></path><path id="kity_path_517" fill="none" stroke="gray"></path></g><path id="node_outline62" fill="rgb(238, 243, 246)" stroke="rgb(115, 161, 191)" d="M285.5,760.5h92a3,3,0,0,1,3,3v20a3,3,0,0,1,-3,3h-92a3,3,0,0,1,-3,-3v-20a3,3,0,0,1,3,-3z" stroke-width="1"></path><g id="node_text62" fill="black"><text id="kity_text_273" text-rendering="inherit" font-size="14" dy=".8em" y="766.5" x="302.5">Natasha</text></g></g><g id="minder_node63"><g id="node_expander62" style="cursor: pointer;" display="none"><path id="kity_path_524" fill="white" stroke="gray" d="M282.5,523.5A6,6,0,1,1,270.5,523.5A6,6,0,1,1,282.5,523.5"></path><path id="kity_path_525" fill="none" stroke="gray"></path></g><path id="node_outline63" fill="none" stroke="none" d="M214.5,514.5h51a5,5,0,0,1,5,5v8a5,5,0,0,1,-5,5h-51a5,5,0,0,1,-5,-5v-8a5,5,0,0,1,5,-5z" stroke-width="3"></path><g id="node_text63" fill="black"><text id="kity_text_521" text-rendering="inherit" font-size="12" dy=".8em" y="517.5" x="214.5">graphQL</text></g></g></g></g></svg>